<svg width="60" height="60" viewBox="0 0 60 60" fill="none" xmlns="http://www.w3.org/2000/svg">
<g filter="url(#filter0_d_104_714)">
<path fill-rule="evenodd" clip-rule="evenodd" d="M30 48C41.0457 48 50 39.0457 50 28C50 16.9543 41.0457 8 30 8C18.9543 8 10 16.9543 10 28C10 39.0457 18.9543 48 30 48Z" fill="white"/>
</g>
<g clip-path="url(#clip0_104_714)">
<rect x="23.3335" y="20.4443" width="14.2222" height="14.2222" rx="4" fill="#143254"/>
<path d="M35.4724 20.4443H25.4168C24.2682 20.4443 23.3335 21.3791 23.3335 22.5277V32.5832C23.3335 33.7321 24.2682 34.6666 25.4168 34.6666H35.4724C36.6213 34.6666 37.5557 33.7321 37.5557 32.5832V22.5277C37.5557 21.3791 36.6213 20.4443 35.4724 20.4443ZM36.7224 32.5832C36.7224 33.2724 36.1616 33.8332 35.4724 33.8332H25.4168C24.7277 33.8332 24.1668 33.2724 24.1668 32.5832V22.5277C24.1668 21.8385 24.7277 21.2777 25.4168 21.2777H35.4724C36.1616 21.2777 36.7224 21.8385 36.7224 22.5277V32.5832Z" fill="white"/>
<path d="M35.0282 22.1387C34.5687 22.1387 34.1948 22.5126 34.1948 22.972C34.1948 23.4314 34.5687 23.8053 35.0282 23.8053C35.4876 23.8053 35.8615 23.4314 35.8615 22.972C35.8615 22.5126 35.4876 22.1387 35.0282 22.1387Z" fill="white"/>
<path d="M30.4448 23.8054C28.377 23.8054 26.6948 25.4876 26.6948 27.5554C26.6948 29.6232 28.377 31.3054 30.4448 31.3054C32.5126 31.3054 34.1948 29.6232 34.1948 27.5554C34.1948 25.4876 32.5126 23.8054 30.4448 23.8054ZM30.4448 30.4721C28.8365 30.4721 27.5282 29.1638 27.5282 27.5554C27.5282 25.9471 28.8365 24.6388 30.4448 24.6388C32.0532 24.6388 33.3615 25.9471 33.3615 27.5554C33.3615 29.1638 32.0532 30.4721 30.4448 30.4721Z" fill="white"/>
</g>
<defs>
<filter id="filter0_d_104_714" x="0" y="0" width="60" height="60" filterUnits="userSpaceOnUse" color-interpolation-filters="sRGB">
<feFlood flood-opacity="0" result="BackgroundImageFix"/>
<feColorMatrix in="SourceAlpha" type="matrix" values="0 0 0 0 0 0 0 0 0 0 0 0 0 0 0 0 0 0 127 0" result="hardAlpha"/>
<feOffset dy="2"/>
<feGaussianBlur stdDeviation="5"/>
<feColorMatrix type="matrix" values="0 0 0 0 0 0 0 0 0 0 0 0 0 0 0 0 0 0 0.1 0"/>
<feBlend mode="normal" in2="BackgroundImageFix" result="effect1_dropShadow_104_714"/>
<feBlend mode="normal" in="SourceGraphic" in2="effect1_dropShadow_104_714" result="shape"/>
</filter>
<clipPath id="clip0_104_714">
<rect x="23.3335" y="20.4443" width="14.2222" height="14.2222" rx="4" fill="white"/>
</clipPath>
</defs>
</svg>
