<svg width="60" height="60" viewBox="0 0 60 60" fill="none" xmlns="http://www.w3.org/2000/svg">
<g filter="url(#filter0_d_104_724)">
<path fill-rule="evenodd" clip-rule="evenodd" d="M30 48C41.0457 48 50 39.0457 50 28C50 16.9543 41.0457 8 30 8C18.9543 8 10 16.9543 10 28C10 39.0457 18.9543 48 30 48Z" fill="white"/>
</g>
<path d="M38.2929 23.1599C37.7124 23.4145 37.0938 23.5833 36.449 23.6653C37.1124 23.2692 37.6187 22.6467 37.8568 21.8965C37.2382 22.2653 36.5553 22.5258 35.8275 22.6711C35.2402 22.0458 34.4031 21.6584 33.4899 21.6584C31.7182 21.6584 30.2919 23.0965 30.2919 24.8594C30.2919 25.1131 30.3133 25.357 30.366 25.5892C27.7055 25.4594 25.3514 24.1843 23.7699 22.2419C23.4938 22.7209 23.3319 23.2692 23.3319 23.8594C23.3319 24.9677 23.9026 25.9502 24.7533 26.5189C24.2392 26.5092 23.7348 26.3599 23.3075 26.1248C23.3075 26.1345 23.3075 26.1472 23.3075 26.1599C23.3075 27.715 24.4168 29.0067 25.8714 29.3043C25.6109 29.3755 25.327 29.4097 25.0324 29.4097C24.8275 29.4097 24.6207 29.398 24.4265 29.355C24.8412 30.6223 26.0177 31.5541 27.4168 31.5843C26.328 32.436 24.9455 32.9492 23.449 32.9492C23.1865 32.9492 22.9348 32.9375 22.6831 32.9053C24.1007 33.8194 25.7807 34.3414 27.5924 34.3414C33.4812 34.3414 36.7007 29.4633 36.7007 25.235C36.7007 25.0936 36.6958 24.957 36.689 24.8214C37.3241 24.3706 37.8577 23.8077 38.2929 23.1599Z" fill="#143254"/>
<defs>
<filter id="filter0_d_104_724" x="0" y="0" width="60" height="60" filterUnits="userSpaceOnUse" color-interpolation-filters="sRGB">
<feFlood flood-opacity="0" result="BackgroundImageFix"/>
<feColorMatrix in="SourceAlpha" type="matrix" values="0 0 0 0 0 0 0 0 0 0 0 0 0 0 0 0 0 0 127 0" result="hardAlpha"/>
<feOffset dy="2"/>
<feGaussianBlur stdDeviation="5"/>
<feColorMatrix type="matrix" values="0 0 0 0 0 0 0 0 0 0 0 0 0 0 0 0 0 0 0.1 0"/>
<feBlend mode="normal" in2="BackgroundImageFix" result="effect1_dropShadow_104_724"/>
<feBlend mode="normal" in="SourceGraphic" in2="effect1_dropShadow_104_724" result="shape"/>
</filter>
</defs>
</svg>
