<svg width="60" height="60" viewBox="0 0 60 60" fill="none" xmlns="http://www.w3.org/2000/svg">
<g filter="url(#filter0_d_104_711)">
<path fill-rule="evenodd" clip-rule="evenodd" d="M30 48C41.0457 48 50 39.0457 50 28C50 16.9543 41.0457 8 30 8C18.9543 8 10 16.9543 10 28C10 39.0457 18.9543 48 30 48Z" fill="white"/>
</g>
<path fill-rule="evenodd" clip-rule="evenodd" d="M33.0415 23.2711C32.6683 23.1543 32.2392 23.0765 31.8473 23.0765C31.3622 23.0765 30.3173 23.4073 30.3173 24.0495V25.5869H32.799V28.1751H30.3173V35.317H27.817V28.1751H26.5854V25.5869H27.817V24.283C27.817 22.3175 28.6753 20.6829 30.7465 20.6829C31.4555 20.6829 32.7243 20.7218 33.4147 20.9748L33.0415 23.2711Z" fill="#283959"/>
<defs>
<filter id="filter0_d_104_711" x="0" y="0" width="60" height="60" filterUnits="userSpaceOnUse" color-interpolation-filters="sRGB">
<feFlood flood-opacity="0" result="BackgroundImageFix"/>
<feColorMatrix in="SourceAlpha" type="matrix" values="0 0 0 0 0 0 0 0 0 0 0 0 0 0 0 0 0 0 127 0" result="hardAlpha"/>
<feOffset dy="2"/>
<feGaussianBlur stdDeviation="5"/>
<feColorMatrix type="matrix" values="0 0 0 0 0 0 0 0 0 0 0 0 0 0 0 0 0 0 0.1 0"/>
<feBlend mode="normal" in2="BackgroundImageFix" result="effect1_dropShadow_104_711"/>
<feBlend mode="normal" in="SourceGraphic" in2="effect1_dropShadow_104_711" result="shape"/>
</filter>
</defs>
</svg>
