<svg width="38" height="38" viewBox="0 0 38 38" fill="none" xmlns="http://www.w3.org/2000/svg">
<g id="Group">
<g id="Group_2">
<path id="Vector" d="M18.5649 37.869C7.89891 34.5754 3.35883 25.8152 1.42707 19.0452C0.156629 14.6086 0.0261065 7.09083 0.0152294 6.24599L0 5.07133L1.079 4.71668C1.27261 4.65117 2.36467 4.10677 3.26964 3.25062C4.44871 2.1347 4.45958 0 4.45958 0H33.2576C33.2576 0 33.2815 2.06016 34.3584 3.07217C35.3678 4.02092 36.6599 4.63762 36.8971 4.7099L38 5.051L37.9848 6.24599C37.9674 7.62169 37.8129 14.7057 36.5729 19.0429C34.6412 25.8107 30.0989 34.5732 19.4329 37.8667L18.9978 38L18.5649 37.8667V37.869Z" fill="white"/>
<path id="Vector_2" d="M18.8137 37.0037C8.52188 33.8254 4.13191 25.3453 2.26324 18.7898C1.02543 14.4662 0.897087 7.06591 0.88621 6.23688L0.879684 5.73313L1.34087 5.58178C1.67153 5.47335 2.84408 4.816 3.84911 3.92598C5.12825 2.7965 5.28053 0.905762 5.28053 0.905762H32.4361C32.4361 0.905762 32.571 2.66322 33.7762 3.74752C34.8726 4.73468 36.2496 5.45528 36.6477 5.57952L37.1198 5.72635L37.1133 6.23914C37.0959 7.5945 36.9458 14.5656 35.7384 18.7921C33.8676 25.3476 29.4754 33.8277 19.1836 37.006L18.9965 37.0625L18.8094 37.006L18.8137 37.0037Z" fill="url(#paint0_linear_60_167)"/>
</g>
<g id="Group_3">
<path id="Vector_3" d="M19.2283 36.7312L19.187 36.7176C9.02563 33.598 4.69004 25.2241 2.84095 18.7477C1.54223 14.2095 1.47914 6.25799 1.47914 6.17893V6.01177L1.63795 6.02984C1.97949 5.99144 5.84518 3.95613 5.84518 1.50065V1.35156H32.3329V1.50065C32.3329 3.97194 36.451 5.9937 36.8317 6.02984L36.9905 6.01177L36.9774 6.17893C36.9774 6.25799 36.9122 14.2095 35.6178 18.7477C33.7687 25.2241 29.4309 33.598 19.2696 36.7176L19.2283 36.7312ZM1.76847 6.29414C1.78153 7.29485 1.9164 14.4647 3.11722 18.6641C4.94239 25.0615 9.21924 33.3292 19.2283 36.4217C29.2395 33.3292 33.5185 25.0615 35.3437 18.6641C36.5423 14.467 36.6794 7.30163 36.6924 6.29414C36.1812 6.13601 34.7128 5.37927 33.5729 4.31756C32.6157 3.42754 32.1067 2.53073 32.0545 1.64975H6.12799C6.07578 2.59173 5.5341 3.54952 4.51384 4.49828C3.51532 5.4267 2.24271 6.13827 1.7663 6.29414H1.76847Z" fill="black"/>
<g id="Group_4">
<path id="Vector_4" fill-rule="evenodd" clip-rule="evenodd" d="M19.1387 4.44365C19.2518 4.44365 19.3649 4.44364 19.4781 4.45042C19.4628 4.45946 19.4476 4.46849 19.4324 4.47753C20.0023 4.9745 20.8899 5.09874 21.5491 4.72601L21.536 4.71246C23.0414 5.05356 24.4358 5.70865 25.6475 6.60997C28.593 8.74694 30.5204 12.2912 30.5204 16.3054C30.5204 22.8315 25.4256 28.1242 19.1409 28.1242C12.8561 28.1242 7.75916 22.8337 7.75916 16.3054C7.75916 12.2912 9.68657 8.74694 12.6321 6.60997C13.9112 5.66122 15.3905 4.98353 16.9894 4.66051C16.9676 4.68309 16.9481 4.70342 16.9285 4.72827C17.5876 5.101 18.4752 4.97676 19.0452 4.47979C19.0278 4.46849 19.0104 4.45946 18.993 4.44816C19.043 4.44816 19.093 4.44816 19.1431 4.44816C19.2562 4.44816 19.3693 4.44816 19.4824 4.45268C20.1046 4.10254 21.0248 4.14321 21.5251 4.69891C26.8788 5.84193 30.9055 10.7642 30.9055 16.6623C30.9055 23.4075 25.6388 28.8764 19.1431 28.8764C12.6473 28.8764 7.38063 23.4075 7.38063 16.6623C7.38063 16.3257 7.39368 15.9936 7.41979 15.6661C6.09932 15.0245 5.0486 13.3507 5.39449 11.8191C6.59531 12.4268 7.38933 13.7934 7.46765 15.1714C8.08982 9.86286 11.9903 5.607 17.0046 4.64921C17.5093 4.14321 18.3882 4.11384 18.993 4.44816C19.043 4.44816 19.093 4.44816 19.1431 4.44816L19.1387 4.44365ZM14.9619 5.76287C15.6211 6.1356 16.5086 6.01136 17.0786 5.51439C16.4434 5.13037 15.4666 5.16425 14.9619 5.76287ZM13.5305 6.5919C14.2353 6.98948 15.1838 6.85846 15.7951 6.32535C15.1164 5.91422 14.07 5.95262 13.5305 6.5919ZM11.8728 7.53614C12.6125 7.85917 13.5436 7.6265 14.0983 7.0324C13.3826 6.69582 12.3471 6.84491 11.8728 7.53614ZM10.8461 8.90506C11.6292 9.08804 12.5059 8.69272 12.954 8.00826C12.1926 7.80496 11.1963 8.13702 10.8461 8.90506ZM9.72572 10.5112C10.5284 10.4863 11.2833 9.87641 11.5531 9.09933C10.7677 9.09933 9.88235 9.67762 9.72572 10.5112ZM8.75984 12.5149C9.73007 12.4855 10.6437 11.7468 10.9701 10.8071C10.0194 10.8071 8.9491 11.5051 8.75984 12.5149ZM8.32911 14.6134C9.27107 14.3717 10.0129 13.4501 10.1412 12.4584C9.21233 12.6662 8.30954 13.5856 8.32911 14.6134ZM8.20729 16.8656C9.21451 16.4861 9.92803 15.386 9.95632 14.2814C8.95998 14.6202 8.07024 15.7406 8.20729 16.8656ZM8.52925 19.1923C9.43639 18.6005 9.90846 17.3671 9.7105 16.2828C8.80553 16.834 8.16596 18.1238 8.52925 19.1923ZM9.22973 21.2434C10.1695 20.5319 10.5937 19.1584 10.3 17.9973C9.35808 18.6637 8.75767 20.1117 9.22973 21.2434ZM10.3892 23.4436C11.1202 22.5039 11.1876 21.0627 10.6176 20.0213C9.87365 20.9181 9.65394 22.4768 10.3892 23.4436ZM12.0991 25.0227C12.6582 23.9632 12.4798 22.5333 11.7402 21.6116C11.1615 22.6304 11.2094 24.2049 12.0991 25.0227ZM14.392 26.6626C14.603 25.4744 14.0026 24.1755 13.0215 23.5408C12.78 24.6974 13.2999 26.177 14.392 26.6626ZM16.9198 27.765C16.8915 26.5565 16.0453 25.4134 14.9598 25.0023C14.9511 26.186 15.7538 27.5233 16.9198 27.765ZM15.1012 3.08828C13.8916 3.33676 13.0563 4.72376 13.0606 5.95488C14.1875 5.5302 15.0685 4.34425 15.1012 3.08828ZM12.7104 3.99411C11.6074 4.56789 11.1571 6.1356 11.4769 7.31928C12.4559 6.59868 13.0019 5.21394 12.7104 3.99411ZM10.8134 5.42403C9.74965 6.07234 9.39724 7.66716 9.79316 8.826C10.7242 8.03989 11.1811 6.61901 10.8134 5.42403ZM8.6402 6.73647C7.66344 7.77333 7.73958 9.62567 8.50314 10.771C9.29499 9.62341 9.38419 7.9292 8.6402 6.73647ZM6.7737 9.30941C6.10585 10.5835 6.66493 12.3454 7.70042 13.2287C8.15943 11.9004 7.80267 10.2446 6.7737 9.30941ZM5.01597 14.6112C4.66355 16.1585 5.74256 17.8528 7.08478 18.4785C7.20225 16.9356 6.36472 15.2934 5.01597 14.6112ZM17.2048 3.02277C16.2933 3.1312 15.4884 3.90376 15.2556 4.81637C16.1519 4.73957 17.1047 3.9896 17.2048 3.02277ZM5.1987 18.16C5.12474 19.748 6.48437 21.2095 7.91361 21.571C7.75698 20.0326 6.64535 18.5756 5.1987 18.16ZM5.8274 21.5755C6.13848 23.1319 7.80701 24.1936 9.27759 24.1733C8.75549 22.7253 7.32843 21.6026 5.8274 21.5755ZM7.45895 24.5347C8.02021 26.0143 9.83884 26.7666 11.2833 26.4864C10.5328 25.1514 8.94258 24.2953 7.45895 24.5347ZM9.8606 27.4217C10.8112 28.6686 12.7604 28.8425 14.0657 28.1377C12.9736 27.0851 11.2137 26.7462 9.8606 27.4217ZM13.1455 29.2762C14.2897 30.3334 16.2389 30.155 17.4049 29.2288C16.1541 28.3885 14.3637 28.3681 13.1455 29.2762ZM23.5113 5.76061C23.0066 5.16199 22.0298 5.1281 21.3946 5.51213C21.9646 6.00909 22.8521 6.13334 23.5113 5.76061ZM24.9427 6.58964C24.4032 5.95036 23.3568 5.91196 22.6781 6.32309C23.2872 6.8562 24.2379 6.98722 24.9427 6.58964ZM26.6004 7.53388C26.1261 6.84039 25.0906 6.6913 24.3749 7.03014C24.9296 7.62424 25.8607 7.85691 26.6004 7.53388ZM27.6271 8.90281C27.2769 8.13477 26.2806 7.80044 25.5192 8.006C25.9651 8.69047 26.844 9.08578 27.6271 8.90281ZM28.7475 10.5089C28.5909 9.67311 27.7055 9.09482 26.9201 9.09708C27.1899 9.87641 27.9448 10.4863 28.7475 10.5089ZM29.7134 12.5126C29.5241 11.5029 28.4538 10.8026 27.5031 10.8048C27.8273 11.7468 28.7431 12.4832 29.7134 12.5126ZM30.1441 14.6112C30.1658 13.5833 29.2609 12.664 28.332 12.4561C28.4581 13.4478 29.2021 14.3695 30.1441 14.6112ZM30.2659 16.8633C30.403 15.7384 29.5154 14.6179 28.5191 14.2791C28.5473 15.3837 29.2609 16.4838 30.2659 16.8633ZM29.944 19.19C30.3073 18.1193 29.6677 16.8317 28.7627 16.2805C28.5647 17.3648 29.0368 18.5982 29.944 19.19ZM29.2435 21.2412C29.7155 20.1094 29.113 18.6615 28.1732 17.9951C27.8817 19.1562 28.3037 20.5296 29.2435 21.2412ZM28.084 23.4414C28.8214 22.4746 28.5996 20.9159 27.8577 20.0191C27.2856 21.0605 27.353 22.5017 28.084 23.4414ZM26.3741 25.0204C27.2639 24.2049 27.3117 22.6282 26.7331 21.6094C25.9934 22.531 25.815 23.9609 26.3741 25.0204ZM24.0812 26.6604C25.1733 26.1747 25.6932 24.6951 25.4517 23.5385C24.4706 24.1733 23.8702 25.4722 24.0812 26.6604ZM21.5534 27.7628C22.7173 27.521 23.52 26.1837 23.5135 25.0001C22.4279 25.4112 21.5817 26.5542 21.5534 27.7628ZM23.3721 3.08602C23.4025 4.33973 24.2835 5.52568 25.4104 5.95262C25.4169 4.72375 24.5816 3.33676 23.3721 3.08602ZM25.7628 3.99186C25.4713 5.20943 26.0173 6.59642 26.9963 7.31703C27.3161 6.1356 26.8658 4.56563 25.7628 3.99186ZM27.6598 5.42177C27.2921 6.61675 27.749 8.03763 28.68 8.82374C29.0738 7.6649 28.7236 6.07009 27.6598 5.42177ZM29.833 6.73422C29.0868 7.92694 29.1782 9.62115 29.9701 10.7687C30.7336 9.62567 30.8098 7.77333 29.833 6.73422ZM31.6995 9.30716C30.6684 10.2446 30.3116 11.8982 30.7728 13.2264C31.8083 12.3409 32.3674 10.5812 31.6995 9.30716ZM33.0831 11.8101C31.7343 12.4923 30.8968 14.1368 31.0143 15.6774C32.3543 15.0517 33.4333 13.3574 33.0831 11.8101ZM33.4572 14.6089C33.8097 16.1563 32.7285 17.8505 31.3884 18.4762C31.2709 16.9334 32.1063 15.2911 33.4572 14.6089ZM21.2684 3.02051C21.3685 3.98734 22.3235 4.73731 23.2176 4.81411C22.9826 3.9015 22.1799 3.12894 21.2684 3.02051ZM33.2745 18.1577C31.8279 18.5734 30.7162 20.0304 30.5596 21.5687C31.9888 21.2095 33.3463 19.748 33.2745 18.1577ZM32.6458 21.5732C31.1448 21.6003 29.7177 22.7208 29.1956 24.171C30.664 24.1936 32.3347 23.1319 32.6458 21.5732ZM31.0143 24.5325C29.5306 24.293 27.9404 25.1469 27.1899 26.4842C28.6344 26.7643 30.453 26.0121 31.0143 24.5325ZM28.6126 27.4194C27.2595 26.744 25.4996 27.0828 24.4075 28.1355C25.7128 28.838 27.662 28.6663 28.6126 27.4194ZM25.3277 29.274C24.1073 28.3659 22.317 28.384 21.0683 29.2265C22.2365 30.1527 24.1857 30.3334 25.3277 29.274Z" fill="black"/>
<path id="Vector_5" d="M26.9853 17.6633L26.9744 17.6339C26.9744 17.6339 26.9744 17.6181 26.9744 17.6113H26.9635L24.7294 11.982C24.8556 11.9233 24.9448 11.7923 24.9448 11.6387C24.9448 11.4534 24.8121 11.3066 24.6424 11.275C24.6424 11.2321 24.6424 11.1914 24.6359 11.144C24.6163 11.0152 24.588 10.8435 24.4248 10.7283C24.377 10.7035 24.3269 10.6854 24.2921 10.6831C24.2421 10.6741 24.1855 10.6809 24.1399 10.6967C24.042 10.7283 23.968 10.7916 23.8984 10.8503C23.7592 10.9723 23.6352 11.1146 23.4938 11.2321C23.3524 11.3518 23.1957 11.4489 23.0217 11.4964C22.9303 11.5212 22.8672 11.5302 22.7563 11.5302C22.6715 11.5348 22.5692 11.5122 22.4757 11.5031C22.2886 11.467 22.1102 11.4128 21.9536 11.3179C21.7948 11.2275 21.6512 11.1146 21.5011 10.9881C21.3466 10.8729 21.1791 10.7486 20.992 10.6741C20.8028 10.6063 20.6135 10.577 20.446 10.595C20.3612 10.595 20.285 10.6108 20.2132 10.6289C20.1415 10.6447 20.0718 10.656 20.0109 10.6809C19.8869 10.7238 19.7782 10.7577 19.6999 10.8029C19.6716 10.8164 19.6455 10.83 19.6215 10.8435V10.2359C19.6215 10.1952 19.5911 10.1636 19.5519 10.1636H19.33C19.2909 10.1636 19.2604 10.1952 19.2604 10.2359V10.8435C19.2365 10.83 19.2126 10.8187 19.1821 10.8029C19.1038 10.7554 18.995 10.7238 18.871 10.6809C18.8101 10.656 18.7405 10.6447 18.6687 10.6289C18.5969 10.6108 18.5186 10.595 18.4359 10.595C18.2706 10.577 18.0792 10.6086 17.8899 10.6741C17.7028 10.7464 17.5353 10.8706 17.3809 10.9881C17.2308 11.1146 17.0872 11.2275 16.9284 11.3179C16.7718 11.4128 16.5912 11.467 16.4063 11.5031C16.3127 11.5099 16.2105 11.5348 16.1257 11.5302C16.0147 11.5302 15.9494 11.5212 15.8603 11.4964C15.6884 11.4489 15.5296 11.3518 15.3882 11.2321C15.2446 11.1146 15.1228 10.9723 14.9836 10.8503C14.9118 10.7893 14.84 10.7283 14.7421 10.6967C14.6964 10.6809 14.6399 10.6741 14.5898 10.6831C14.555 10.6854 14.505 10.7035 14.4571 10.7283C14.2961 10.8435 14.2657 11.0152 14.2461 11.144C14.2396 11.1914 14.2396 11.2321 14.2396 11.275C14.0699 11.3066 13.9372 11.4534 13.9372 11.6387C13.9372 11.7923 14.0264 11.9233 14.1526 11.982L11.9184 17.6113H11.9075C11.9075 17.6113 11.9075 17.6271 11.9075 17.6339L11.8967 17.6633C11.8814 17.7039 11.8967 17.7401 11.9184 17.7717C12.0381 18.6098 13.0823 19.2671 14.3527 19.2671C15.6231 19.2671 16.6673 18.612 16.787 17.7717C16.8109 17.7401 16.824 17.7017 16.8087 17.661L16.7979 17.6339C16.7979 17.6339 16.7979 17.6181 16.7979 17.6091H16.7848L14.4397 11.982C14.5659 11.9233 14.6551 11.7923 14.6551 11.6387C14.6551 11.4376 14.5028 11.2772 14.3135 11.2659C14.3179 11.2321 14.3201 11.1982 14.3288 11.1598C14.3527 11.0423 14.4049 10.9022 14.5115 10.8435C14.6333 10.787 14.7421 10.8503 14.8618 10.9813C14.9792 11.1056 15.0967 11.2546 15.2446 11.397C15.3904 11.537 15.5688 11.6703 15.7798 11.7426C16.0017 11.8239 16.217 11.8171 16.4346 11.8013C16.6499 11.7787 16.8718 11.7335 17.0698 11.6341C17.2721 11.546 17.4483 11.415 17.6006 11.2998C17.7485 11.1756 17.8856 11.083 18.0204 11.0084C18.1575 10.9474 18.2945 10.9022 18.4359 10.8932C18.573 10.8774 18.71 10.8797 18.8253 10.8887C18.9428 10.9045 19.0472 10.9068 19.1386 10.9271C19.1821 10.9339 19.2213 10.9406 19.2539 10.9474V11.7381C19.0472 11.8149 18.8971 12.0204 18.8971 12.2621C18.8971 12.5038 19.0407 12.7026 19.243 12.7817C18.9863 12.8675 18.8014 13.1115 18.8014 13.4074C18.8014 13.7033 18.9928 13.9541 19.2539 14.0354V18.7092H19.1691C19.1081 18.7092 19.0581 18.7611 19.0581 18.8244V19.9561H18.1009C17.8529 19.9561 17.6506 20.1662 17.6506 20.4237V20.9794H16.9197C16.8566 20.9794 16.8044 21.0336 16.8044 21.0991V21.6142C16.8044 21.6797 16.8566 21.7339 16.9197 21.7339H21.9492C22.0123 21.7339 22.0645 21.6797 22.0645 21.6142V21.0991C22.0645 21.0336 22.0123 20.9794 21.9492 20.9794H21.2183V20.4102C21.2183 20.1594 21.0225 19.9561 20.781 19.9561H19.8108V18.8244C19.8108 18.7611 19.7608 18.7092 19.6999 18.7092H19.615V14.0354C19.8761 13.9541 20.0675 13.7056 20.0675 13.4074C20.0675 13.1092 19.8804 12.8675 19.6237 12.7817C19.826 12.7004 19.9696 12.4993 19.9696 12.2621C19.9696 12.0249 19.8195 11.8149 19.6128 11.7381V10.9474C19.6476 10.9429 19.6868 10.9361 19.7281 10.9271C19.8173 10.909 19.9239 10.9068 20.0414 10.8887C20.1589 10.8797 20.2959 10.8774 20.4308 10.8932C20.57 10.9022 20.7092 10.9474 20.8463 11.0084C20.979 11.0807 21.1182 11.1756 21.2661 11.2998C21.4184 11.415 21.5946 11.546 21.7969 11.6341C21.9971 11.7313 22.219 11.7787 22.4322 11.8013C22.6497 11.8171 22.8651 11.8239 23.087 11.7426C23.298 11.668 23.4785 11.537 23.6243 11.397C23.77 11.2569 23.8897 11.1056 24.0072 10.9813C24.129 10.8503 24.2356 10.787 24.3574 10.8435C24.464 10.9 24.5162 11.0423 24.5401 11.1598C24.5488 11.1959 24.551 11.2298 24.5554 11.2659C24.3661 11.2772 24.2138 11.4376 24.2138 11.6387C24.2138 11.7923 24.303 11.9233 24.4292 11.982L22.0841 17.6091H22.0711C22.0711 17.6091 22.0711 17.6249 22.0711 17.6339L22.0602 17.661C22.0428 17.7017 22.058 17.7401 22.0819 17.7717C22.2016 18.6098 23.2458 19.2671 24.5162 19.2671C25.7866 19.2671 26.8308 18.612 26.9505 17.7717C26.9744 17.7401 26.9875 17.7017 26.9722 17.6633H26.9853ZM12.1512 17.6113L14.1917 12.47L14.2396 17.6113H12.1512ZM14.4571 17.6113L14.4093 12.47L16.5499 17.6113H14.4571ZM24.4227 17.6113H22.3299L24.4705 12.47L24.4227 17.6113ZM24.6402 17.6113L24.6881 12.47L26.7286 17.6113H24.6402Z" fill="black"/>
</g>
</g>
<g id="Group_5">
<path id="Vector_6" d="M19.0651 36.5605L19.0238 36.547C8.86245 33.4274 4.52686 25.0535 2.67776 18.5771C1.37905 14.0388 1.31596 6.08734 1.31596 6.00828V5.84112L1.47476 5.85919C1.8163 5.82079 5.682 3.78547 5.682 1.33V1.18091H32.1697V1.33C32.1697 3.80129 36.2878 5.82305 36.6685 5.85919L36.8273 5.84112L36.8142 6.00828C36.8142 6.08734 36.749 14.0388 35.4546 18.5771C33.6055 25.0535 29.2678 33.4274 19.1064 36.547L19.0651 36.5605ZM1.60529 6.12348C1.61834 7.1242 1.75321 14.2941 2.95404 18.4935C4.7792 24.8908 9.05606 33.1586 19.0651 36.2511C29.0763 33.1586 33.3553 24.8908 35.1805 18.4935C36.3792 14.2964 36.5162 7.13098 36.5293 6.12348C36.018 5.96536 34.5496 5.20861 33.4097 4.14691C32.4526 3.25688 31.9435 2.36008 31.8913 1.47909H5.9648C5.91259 2.42107 5.37092 3.37887 4.35065 4.32762C3.35214 5.25605 2.07953 5.96762 1.60311 6.12348H1.60529Z" fill="white"/>
<g id="Group_6">
<path id="Vector_7" fill-rule="evenodd" clip-rule="evenodd" d="M18.9759 4.27421C19.089 4.27421 19.2021 4.27421 19.3153 4.28099C19.3 4.29002 19.2848 4.29906 19.2696 4.30809C19.8395 4.80506 20.7271 4.92931 21.3862 4.55658L21.3732 4.54303C22.8786 4.88413 24.273 5.53922 25.4847 6.44054C28.4302 8.5775 30.3576 12.1218 30.3576 16.1359C30.3576 22.662 25.2628 27.9547 18.9781 27.9547C12.6933 27.9547 7.59635 22.6643 7.59635 16.1359C7.59635 12.1218 9.52376 8.5775 12.4693 6.44054C13.7484 5.49178 15.2277 4.8141 16.8266 4.49107C16.8048 4.51366 16.7853 4.53399 16.7657 4.55884C17.4248 4.93156 18.3124 4.80732 18.8824 4.31036C18.8649 4.29906 18.8475 4.29002 18.8301 4.27873C18.8802 4.27873 18.9302 4.27873 18.9802 4.27873C19.0934 4.27873 19.2065 4.27873 19.3196 4.28325C19.9418 3.93311 20.862 3.97377 21.3623 4.52947C26.716 5.6725 30.7427 10.5947 30.7427 16.4929C30.7427 23.2381 25.476 28.707 18.9802 28.707C12.4845 28.707 7.21782 23.2381 7.21782 16.4929C7.21782 16.1563 7.23087 15.8242 7.25698 15.4967C5.93651 14.8551 4.88579 13.1812 5.23168 11.6497C6.4325 12.2573 7.22652 13.624 7.30484 15.002C7.927 9.69343 11.8275 5.43757 16.8418 4.47978C17.3465 3.97377 18.2254 3.94441 18.8301 4.27873C18.8802 4.27873 18.9302 4.27873 18.9802 4.27873L18.9759 4.27421ZM14.7991 5.59344C15.4583 5.96616 16.3458 5.84192 16.9158 5.34495C16.2806 4.96093 15.3038 4.99481 14.7991 5.59344ZM13.3677 6.42247C14.0725 6.82004 15.021 6.68903 15.6323 6.15591C14.9536 5.74479 13.9072 5.78319 13.3677 6.42247ZM11.71 7.36671C12.4497 7.68974 13.3808 7.45707 13.9355 6.86297C13.2198 6.52638 12.1843 6.67547 11.71 7.36671ZM10.6832 8.73563C11.4664 8.91861 12.3431 8.52329 12.7912 7.83883C12.0298 7.63552 11.0335 7.96759 10.6832 8.73563ZM9.56291 10.3417C10.3656 10.3169 11.1205 9.70698 11.3903 8.9299C10.6049 8.9299 9.71954 9.50819 9.56291 10.3417ZM8.59703 12.3454C9.56726 12.3161 10.4809 11.5774 10.8072 10.6377C9.85659 10.6377 8.78629 11.3357 8.59703 12.3454ZM8.1663 14.444C9.10825 14.2023 9.85007 13.2806 9.97841 12.289C9.04952 12.4968 8.14672 13.4162 8.1663 14.444ZM8.04448 16.6962C9.05169 16.3167 9.76522 15.2165 9.7935 14.1119C8.79717 14.4508 7.90743 15.5712 8.04448 16.6962ZM8.36644 19.0229C9.27358 18.431 9.74565 17.1976 9.54769 16.1134C8.64272 16.6645 8.00314 17.9544 8.36644 19.0229ZM9.06692 21.074C10.0067 20.3624 10.4309 18.989 10.1372 17.8279C9.19527 18.4943 8.59486 19.9423 9.06692 21.074ZM10.2264 23.2742C10.9574 22.3345 11.0248 20.8933 10.4548 19.8519C9.71084 20.7487 9.49113 22.3074 10.2264 23.2742ZM11.9363 24.8532C12.4954 23.7938 12.317 22.3639 11.5773 21.4422C10.9987 22.461 11.0465 24.0355 11.9363 24.8532ZM14.2292 26.4932C14.4402 25.305 13.8398 24.0061 12.8587 23.3713C12.6172 24.5279 13.1371 26.0075 14.2292 26.4932ZM16.757 27.5956C16.7287 26.387 15.8825 25.244 14.7969 24.8329C14.7882 26.0166 15.591 27.3539 16.757 27.5956ZM14.9383 2.91884C13.7288 3.16733 12.8935 4.55432 12.8978 5.78545C14.0247 5.36077 14.9057 4.17482 14.9383 2.91884ZM12.5476 3.82468C11.4446 4.39845 10.9943 5.96616 11.3141 7.14985C12.2931 6.42925 12.8391 5.04451 12.5476 3.82468ZM10.6506 5.25459C9.58684 5.90291 9.23442 7.49773 9.63035 8.65657C10.5614 7.87045 11.0183 6.44958 10.6506 5.25459ZM8.47739 6.56704C7.50063 7.6039 7.57677 9.45623 8.34033 10.6015C9.13218 9.45398 9.22137 7.75976 8.47739 6.56704ZM6.61089 9.13998C5.94304 10.414 6.50211 12.176 7.53761 13.0593C7.99662 11.731 7.63986 10.0752 6.61089 9.13998ZM4.85316 14.4417C4.50074 15.9891 5.57974 17.6833 6.92197 18.309C7.03944 16.7662 6.20191 15.1239 4.85316 14.4417ZM17.042 2.85334C16.1305 2.96176 15.3256 3.73432 15.0928 4.64694C15.9891 4.57013 16.9419 3.82016 17.042 2.85334ZM5.03589 17.9905C4.96193 19.5786 6.32156 21.0401 7.7508 21.4015C7.59417 19.8632 6.48254 18.4062 5.03589 17.9905ZM5.66459 21.4061C5.97567 22.9625 7.6442 24.0242 9.11478 24.0039C8.59268 22.5559 7.16562 21.4332 5.66459 21.4061ZM7.29614 24.3653C7.8574 25.8449 9.67603 26.5971 11.1205 26.317C10.37 24.982 8.77977 24.1258 7.29614 24.3653ZM9.69779 27.2522C10.6484 28.4992 12.5976 28.6731 13.9028 27.9683C12.8108 26.9156 11.0509 26.5768 9.69779 27.2522ZM12.9827 29.1068C14.1269 30.164 16.0761 29.9855 17.2421 29.0594C15.9912 28.219 14.2009 28.1987 12.9827 29.1068ZM23.3485 5.59118C22.8438 4.99256 21.867 4.95867 21.2318 5.34269C21.8017 5.83966 22.6893 5.9639 23.3485 5.59118ZM24.7799 6.42021C24.2404 5.78093 23.194 5.74253 22.5153 6.15366C23.1244 6.68677 24.075 6.81779 24.7799 6.42021ZM26.4375 7.36445C25.9633 6.67095 24.9278 6.52186 24.2121 6.8607C24.7668 7.45481 25.6979 7.68748 26.4375 7.36445ZM27.4643 8.73337C27.1141 7.96533 26.1178 7.63101 25.3564 7.83657C25.8023 8.52103 26.6812 8.91635 27.4643 8.73337ZM28.5847 10.3395C28.428 9.50367 27.5427 8.92538 26.7573 8.92764C27.0271 9.70698 27.7819 10.3169 28.5847 10.3395ZM29.5506 12.3432C29.3613 11.3334 28.291 10.6331 27.3403 10.6354C27.6645 11.5774 28.5803 12.3138 29.5506 12.3432ZM29.9813 14.4417C30.003 13.4139 29.0981 12.4945 28.1692 12.2867C28.2953 13.2784 29.0393 14.2 29.9813 14.4417ZM30.1031 16.6939C30.2402 15.5689 29.3526 14.4485 28.3562 14.1097C28.3845 15.2143 29.0981 16.3144 30.1031 16.6939ZM29.7811 19.0206C30.1444 17.9499 29.5049 16.6623 28.5999 16.1111C28.4019 17.1954 28.874 18.4288 29.7811 19.0206ZM29.0807 21.0717C29.5527 19.94 28.9501 18.492 28.0104 17.8256C27.7189 18.9867 28.1409 20.3602 29.0807 21.0717ZM27.9212 23.272C28.6586 22.3051 28.4367 20.7465 27.6949 19.8496C27.1228 20.891 27.1902 22.3322 27.9212 23.272ZM26.2113 24.851C27.101 24.0355 27.1489 22.4587 26.5702 21.4399C25.8306 22.3616 25.6522 23.7915 26.2113 24.851ZM23.9184 26.491C25.0105 26.0053 25.5304 24.5257 25.2889 23.3691C24.3078 24.0039 23.7074 25.3027 23.9184 26.491ZM21.3906 27.5933C22.5544 27.3516 23.3572 26.0143 23.3506 24.8306C22.2651 25.2418 21.4189 26.3848 21.3906 27.5933ZM23.2092 2.91659C23.2397 4.1703 24.1207 5.35625 25.2476 5.78319C25.2541 4.55432 24.4188 3.16733 23.2092 2.91659ZM25.6 3.82242C25.3085 5.03999 25.8545 6.42699 26.8335 7.14759C27.1532 5.96616 26.7029 4.39619 25.6 3.82242ZM27.497 5.25234C27.1293 6.44732 27.5862 7.8682 28.5172 8.65431C28.911 7.49547 28.5607 5.90065 27.497 5.25234ZM29.6702 6.56478C28.924 7.75751 29.0154 9.45172 29.8073 10.5993C30.5708 9.45624 30.647 7.6039 29.6702 6.56478ZM31.5367 9.13772C30.5055 10.0752 30.1488 11.7287 30.61 13.057C31.6455 12.1715 32.2045 10.4118 31.5367 9.13772ZM32.9203 11.6406C31.5715 12.3228 30.734 13.9674 30.8514 15.508C32.1915 14.8822 33.2705 13.188 32.9203 11.6406ZM33.2944 14.4395C33.6468 15.9868 32.5657 17.6811 31.2256 18.3068C31.1081 16.7639 31.9435 15.1217 33.2944 14.4395ZM21.1056 2.85107C21.2057 3.8179 22.1607 4.56787 23.0548 4.64468C22.8198 3.73206 22.0171 2.9595 21.1056 2.85107ZM33.1117 17.9883C31.6651 18.4039 30.5534 19.8609 30.3968 21.3993C31.826 21.0401 33.1835 19.5786 33.1117 17.9883ZM32.483 21.4038C30.982 21.4309 29.5549 22.5513 29.0328 24.0016C30.5012 24.0242 32.1719 22.9625 32.483 21.4038ZM30.8514 24.363C29.3678 24.1236 27.7776 24.9775 27.0271 26.3148C28.4715 26.5949 30.2902 25.8426 30.8514 24.363ZM28.4498 27.25C27.0967 26.5745 25.3368 26.9134 24.2447 27.966C25.55 28.6686 27.4991 28.4969 28.4498 27.25ZM25.1649 29.1046C23.9445 28.1965 22.1542 28.2145 20.9055 29.0571C22.0737 29.9833 24.0228 30.164 25.1649 29.1046Z" fill="white"/>
<path id="Vector_8" d="M26.8224 17.4936L26.8115 17.4642C26.8115 17.4642 26.8115 17.4484 26.8115 17.4416H26.8006L24.5665 11.8123C24.6926 11.7536 24.7818 11.6226 24.7818 11.469C24.7818 11.2838 24.6491 11.1369 24.4795 11.1053C24.4795 11.0624 24.4795 11.0217 24.4729 10.9743C24.4533 10.8455 24.4251 10.6738 24.2619 10.5586C24.2141 10.5338 24.164 10.5157 24.1292 10.5135C24.0792 10.5044 24.0226 10.5112 23.9769 10.527C23.879 10.5586 23.8051 10.6219 23.7355 10.6806C23.5962 10.8026 23.4722 10.9449 23.3308 11.0624C23.1894 11.1821 23.0328 11.2792 22.8588 11.3267C22.7674 11.3515 22.7043 11.3606 22.5934 11.3606C22.5085 11.3651 22.4063 11.3425 22.3127 11.3335C22.1257 11.2973 21.9473 11.2431 21.7906 11.1482C21.6318 11.0579 21.4883 10.9449 21.3382 10.8184C21.1837 10.7032 21.0162 10.579 20.8291 10.5044C20.6399 10.4366 20.4506 10.4073 20.2831 10.4254C20.1983 10.4254 20.1221 10.4412 20.0503 10.4592C19.9785 10.4751 19.9089 10.4863 19.848 10.5112C19.724 10.5541 19.6152 10.588 19.5369 10.6332C19.5086 10.6467 19.4825 10.6603 19.4586 10.6738V10.0662C19.4586 10.0255 19.4282 9.9939 19.389 9.9939H19.1671C19.1279 9.9939 19.0975 10.0255 19.0975 10.0662V10.6738C19.0736 10.6603 19.0496 10.649 19.0192 10.6332C18.9409 10.5857 18.8321 10.5541 18.7081 10.5112C18.6472 10.4863 18.5776 10.4751 18.5058 10.4592C18.434 10.4412 18.3557 10.4254 18.273 10.4254C18.1077 10.4073 17.9162 10.4389 17.727 10.5044C17.5399 10.5767 17.3724 10.7009 17.218 10.8184C17.0678 10.9449 16.9243 11.0579 16.7655 11.1482C16.6088 11.2431 16.4283 11.2973 16.2434 11.3335C16.1498 11.3402 16.0476 11.3651 15.9627 11.3606C15.8518 11.3606 15.7865 11.3515 15.6973 11.3267C15.5255 11.2792 15.3667 11.1821 15.2253 11.0624C15.0817 10.9449 14.9599 10.8026 14.8206 10.6806C14.7489 10.6196 14.6771 10.5586 14.5792 10.527C14.5335 10.5112 14.4769 10.5044 14.4269 10.5135C14.3921 10.5157 14.3421 10.5338 14.2942 10.5586C14.1332 10.6738 14.1028 10.8455 14.0832 10.9743C14.0767 11.0217 14.0767 11.0624 14.0767 11.1053C13.907 11.1369 13.7743 11.2838 13.7743 11.469C13.7743 11.6226 13.8635 11.7536 13.9896 11.8123L11.7555 17.4416H11.7446C11.7446 17.4416 11.7446 17.4575 11.7446 17.4642L11.7337 17.4936C11.7185 17.5343 11.7337 17.5704 11.7555 17.602C11.8751 18.4401 12.9193 19.0974 14.1898 19.0974C15.4602 19.0974 16.5044 18.4424 16.6241 17.602C16.648 17.5704 16.661 17.532 16.6458 17.4913L16.6349 17.4642C16.6349 17.4642 16.6349 17.4484 16.6349 17.4394H16.6219L14.2768 11.8123C14.403 11.7536 14.4922 11.6226 14.4922 11.469C14.4922 11.2679 14.3399 11.1076 14.1506 11.0963C14.155 11.0624 14.1571 11.0285 14.1658 10.9901C14.1898 10.8726 14.242 10.7326 14.3486 10.6738C14.4704 10.6174 14.5792 10.6806 14.6988 10.8116C14.8163 10.9359 14.9338 11.085 15.0817 11.2273C15.2275 11.3673 15.4058 11.5006 15.6168 11.5729C15.8387 11.6542 16.0541 11.6474 16.2716 11.6316C16.487 11.609 16.7089 11.5639 16.9069 11.4645C17.1092 11.3764 17.2854 11.2454 17.4377 11.1301C17.5856 11.0059 17.7226 10.9133 17.8575 10.8387C17.9946 10.7777 18.1316 10.7326 18.273 10.7235C18.4101 10.7077 18.5471 10.71 18.6624 10.719C18.7799 10.7348 18.8843 10.7371 18.9757 10.7574C19.0192 10.7642 19.0583 10.771 19.091 10.7777V11.5684C18.8843 11.6452 18.7342 11.8507 18.7342 12.0925C18.7342 12.3342 18.8778 12.533 19.0801 12.6143C18.8234 12.7001 18.6385 12.9441 18.6385 13.24C18.6385 13.5359 18.8299 13.7867 19.091 13.868V18.5418H19.0061C18.9452 18.5418 18.8952 18.5937 18.8952 18.657V19.7887H17.938C17.69 19.7887 17.4877 19.9988 17.4877 20.2563V20.812H16.7568C16.6937 20.812 16.6415 20.8662 16.6415 20.9317V21.4468C16.6415 21.5123 16.6937 21.5665 16.7568 21.5665H21.7863C21.8494 21.5665 21.9016 21.5123 21.9016 21.4468V20.9317C21.9016 20.8662 21.8494 20.812 21.7863 20.812H21.0554V20.2427C21.0554 19.992 20.8596 19.7887 20.6181 19.7887H19.6479V18.657C19.6479 18.5937 19.5978 18.5418 19.5369 18.5418H19.4521V13.868C19.7131 13.7867 19.9046 13.5382 19.9046 13.24C19.9046 12.9418 19.7175 12.7001 19.4608 12.6143C19.6631 12.533 19.8067 12.3319 19.8067 12.0925C19.8067 11.853 19.6566 11.6452 19.4499 11.5684V10.7777C19.4847 10.7732 19.5239 10.7665 19.5652 10.7574C19.6544 10.7393 19.761 10.7371 19.8785 10.719C19.9959 10.71 20.133 10.7077 20.2679 10.7235C20.4071 10.7326 20.5463 10.7777 20.6834 10.8387C20.8161 10.911 20.9553 11.0059 21.1032 11.1301C21.2555 11.2454 21.4317 11.3764 21.634 11.4645C21.8342 11.5616 22.056 11.609 22.2692 11.6316C22.4868 11.6474 22.7021 11.6542 22.924 11.5729C23.1351 11.4984 23.3156 11.3673 23.4614 11.2273C23.6071 11.0872 23.7268 10.9359 23.8442 10.8116C23.9661 10.6806 24.0726 10.6174 24.1945 10.6738C24.3011 10.7303 24.3533 10.8726 24.3772 10.9901C24.3859 11.0262 24.3881 11.0601 24.3924 11.0963C24.2032 11.1076 24.0509 11.2679 24.0509 11.469C24.0509 11.6226 24.1401 11.7536 24.2663 11.8123L21.9212 17.4394H21.9081C21.9081 17.4394 21.9081 17.4552 21.9081 17.4642L21.8972 17.4913C21.8798 17.532 21.8951 17.5704 21.919 17.602C22.0386 18.4401 23.0828 19.0974 24.3533 19.0974C25.6237 19.0974 26.6679 18.4424 26.7876 17.602C26.8115 17.5704 26.8245 17.532 26.8093 17.4936H26.8224ZM11.9883 17.4416L14.0288 12.3003L14.0767 17.4416H11.9883ZM14.2942 17.4416L14.2463 12.3003L16.3869 17.4416H14.2942ZM24.2597 17.4416H22.167L24.3076 12.3003L24.2597 17.4416ZM24.4773 17.4416L24.5251 12.3003L26.5657 17.4416H24.4773Z" fill="white"/>
</g>
</g>
</g>
<defs>
<linearGradient id="paint0_linear_60_167" x1="0.879684" y1="18.9819" x2="37.122" y2="18.9819" gradientUnits="userSpaceOnUse">
<stop stop-color="#31486E"/>
<stop offset="0.23" stop-color="#2B3F62"/>
<stop offset="0.65" stop-color="#1E2942"/>
<stop offset="1" stop-color="#111424"/>
</linearGradient>
</defs>
</svg>
