<svg width="38" height="38" viewBox="0 0 38 38" fill="none" xmlns="http://www.w3.org/2000/svg">
<rect width="38" height="38" fill="#F5F5F5"/>
<g id="&#208;&#147;&#208;&#190;&#208;&#187;&#208;&#190;&#208;&#178;&#208;&#189;&#208;&#176; &#209;&#129;&#209;&#130;&#208;&#190;&#209;&#128;&#209;&#150;&#208;&#189;&#208;&#186;&#208;&#176;1" clip-path="url(#clip0_554_4740)">
<rect width="1440" height="2467" transform="translate(-88 -41)" fill="white"/>
<g id="Banner" clip-path="url(#clip1_554_4740)">
<rect id="Base" x="-88" y="-41" width="1440" height="380" fill="white"/>
<rect id="green backgraund" x="-88" y="-41" width="1440" height="380" fill="url(#paint0_linear_554_4740)"/>
<g id="Header">
<g id="Frame 1000004038">
<g id="Group">
<g id="Group_2">
<path id="Vector" d="M18.5649 37.869C7.89891 34.5754 3.35883 25.8152 1.42707 19.0452C0.156629 14.6086 0.0261065 7.09083 0.0152294 6.24599L0 5.07133L1.079 4.71668C1.27261 4.65117 2.36467 4.10677 3.26964 3.25062C4.44871 2.1347 4.45958 0 4.45958 0H33.2576C33.2576 0 33.2815 2.06016 34.3584 3.07217C35.3678 4.02092 36.6599 4.63762 36.8971 4.7099L38 5.051L37.9848 6.24599C37.9674 7.62169 37.8129 14.7057 36.5729 19.0429C34.6412 25.8107 30.0989 34.5732 19.4329 37.8667L18.9978 38L18.5649 37.8667V37.869Z" fill="white"/>
<path id="Vector_2" d="M18.8137 37.0038C8.52188 33.8255 4.13191 25.3454 2.26324 18.7899C1.02543 14.4663 0.897087 7.066 0.88621 6.23697L0.879684 5.73322L1.34087 5.58187C1.67153 5.47344 2.84408 4.81609 3.84911 3.92606C5.12825 2.79659 5.28053 0.905849 5.28053 0.905849H32.4361C32.4361 0.905849 32.571 2.66331 33.7762 3.74761C34.8726 4.73476 36.2496 5.45537 36.6477 5.57961L37.1198 5.72644L37.1133 6.23922C37.0959 7.59459 36.9458 14.5657 35.7384 18.7922C33.8676 25.3477 29.4754 33.8277 19.1836 37.0061L18.9965 37.0626L18.8094 37.0061L18.8137 37.0038Z" fill="#143254"/>
</g>
<g id="Group_3">
<path id="Vector_3" d="M19.2283 36.7313L19.187 36.7177C9.02563 33.5981 4.69004 25.2242 2.84095 18.7478C1.54223 14.2096 1.47914 6.25807 1.47914 6.17901V6.01185L1.63795 6.02992C1.97949 5.99152 5.84518 3.95621 5.84518 1.50073V1.35164H32.3329V1.50073C32.3329 3.97202 36.451 5.99378 36.8317 6.02992L36.9905 6.01185L36.9774 6.17901C36.9774 6.25807 36.9122 14.2096 35.6178 18.7478C33.7687 25.2242 29.4309 33.5981 19.2696 36.7177L19.2283 36.7313ZM1.76847 6.29422C1.78153 7.29493 1.9164 14.4648 3.11722 18.6642C4.94239 25.0615 9.21924 33.3293 19.2283 36.4218C29.2395 33.3293 33.5185 25.0615 35.3437 18.6642C36.5423 14.4671 36.6794 7.30171 36.6924 6.29422C36.1812 6.13609 34.7128 5.37934 33.5729 4.31764C32.6157 3.42761 32.1067 2.53081 32.0545 1.64982H6.12799C6.07578 2.5918 5.5341 3.5496 4.51384 4.49835C3.51532 5.42678 2.24271 6.13835 1.7663 6.29422H1.76847Z" fill="black"/>
<g id="Group_4">
<path id="Vector_4" fill-rule="evenodd" clip-rule="evenodd" d="M19.1387 4.44382C19.2518 4.44382 19.3649 4.44382 19.4781 4.4506C19.4628 4.45963 19.4476 4.46867 19.4324 4.4777C20.0023 4.97467 20.8899 5.09891 21.5491 4.72619L21.536 4.71264C23.0414 5.05374 24.4358 5.70883 25.6475 6.61015C28.593 8.74711 30.5204 12.2914 30.5204 16.3055C30.5204 22.8316 25.4256 28.1244 19.1409 28.1244C12.8561 28.1244 7.75916 22.8339 7.75916 16.3055C7.75916 12.2914 9.68657 8.74711 12.6321 6.61015C13.9112 5.66139 15.3905 4.98371 16.9894 4.66068C16.9676 4.68327 16.9481 4.7036 16.9285 4.72845C17.5876 5.10117 18.4752 4.97693 19.0452 4.47996C19.0278 4.46867 19.0104 4.45963 18.993 4.44834C19.043 4.44834 19.093 4.44834 19.1431 4.44834C19.2562 4.44834 19.3693 4.44834 19.4824 4.45285C20.1046 4.10272 21.0248 4.14338 21.5251 4.69908C26.8788 5.84211 30.9055 10.7644 30.9055 16.6625C30.9055 23.4077 25.6388 28.8766 19.1431 28.8766C12.6473 28.8766 7.38063 23.4077 7.38063 16.6625C7.38063 16.3259 7.39368 15.9938 7.41979 15.6663C6.09932 15.0247 5.0486 13.3508 5.39449 11.8193C6.59531 12.4269 7.38933 13.7936 7.46765 15.1716C8.08982 9.86303 11.9903 5.60718 17.0046 4.64939C17.5093 4.14338 18.3882 4.11402 18.993 4.44834C19.043 4.44834 19.093 4.44834 19.1431 4.44834L19.1387 4.44382ZM14.9619 5.76304C15.6211 6.13577 16.5086 6.01153 17.0786 5.51456C16.4434 5.13054 15.4666 5.16442 14.9619 5.76304ZM13.5305 6.59208C14.2353 6.98965 15.1838 6.85863 15.7951 6.32552C15.1164 5.9144 14.07 5.9528 13.5305 6.59208ZM11.8728 7.53632C12.6125 7.85935 13.5436 7.62668 14.0983 7.03258C13.3826 6.69599 12.3471 6.84508 11.8728 7.53632ZM10.8461 8.90524C11.6292 9.08821 12.5059 8.6929 12.954 8.00844C12.1926 7.80513 11.1963 8.1372 10.8461 8.90524ZM9.72572 10.5114C10.5284 10.4865 11.2833 9.87659 11.5531 9.09951C10.7677 9.09951 9.88235 9.6778 9.72572 10.5114ZM8.75984 12.515C9.73007 12.4857 10.6437 11.747 10.9701 10.8073C10.0194 10.8073 8.9491 11.5053 8.75984 12.515ZM8.32911 14.6136C9.27107 14.3719 10.0129 13.4502 10.1412 12.4586C9.21233 12.6664 8.30954 13.5858 8.32911 14.6136ZM8.20729 16.8658C9.21451 16.4863 9.92803 15.3862 9.95632 14.2815C8.95998 14.6204 8.07024 15.7408 8.20729 16.8658ZM8.52925 19.1925C9.43639 18.6006 9.90846 17.3673 9.7105 16.283C8.80553 16.8341 8.16596 18.124 8.52925 19.1925ZM9.22973 21.2436C10.1695 20.532 10.5937 19.1586 10.3 17.9975C9.35808 18.6639 8.75767 20.1119 9.22973 21.2436ZM10.3892 23.4438C11.1202 22.5041 11.1876 21.0629 10.6176 20.0215C9.87365 20.9183 9.65394 22.477 10.3892 23.4438ZM12.0991 25.0228C12.6582 23.9634 12.4798 22.5335 11.7402 21.6118C11.1615 22.6306 11.2094 24.2051 12.0991 25.0228ZM14.392 26.6628C14.603 25.4746 14.0026 24.1757 13.0215 23.541C12.78 24.6975 13.2999 26.1771 14.392 26.6628ZM16.9198 27.7652C16.8915 26.5566 16.0453 25.4136 14.9598 25.0025C14.9511 26.1862 15.7538 27.5235 16.9198 27.7652ZM15.1012 3.08845C13.8916 3.33694 13.0563 4.72393 13.0606 5.95506C14.1875 5.53037 15.0685 4.34443 15.1012 3.08845ZM12.7104 3.99429C11.6074 4.56806 11.1571 6.13577 11.4769 7.31946C12.4559 6.59885 13.0019 5.21412 12.7104 3.99429ZM10.8134 5.4242C9.74965 6.07252 9.39724 7.66734 9.79316 8.82618C10.7242 8.04006 11.1811 6.61919 10.8134 5.4242ZM8.6402 6.73665C7.66344 7.77351 7.73958 9.62584 8.50314 10.7711C9.29499 9.62358 9.38419 7.92937 8.6402 6.73665ZM6.7737 9.30959C6.10585 10.5836 6.66493 12.3456 7.70042 13.2289C8.15943 11.9006 7.80267 10.2448 6.7737 9.30959ZM5.01597 14.6113C4.66355 16.1587 5.74256 17.8529 7.08478 18.4787C7.20225 16.9358 6.36472 15.2935 5.01597 14.6113ZM17.2048 3.02294C16.2933 3.13137 15.4884 3.90393 15.2556 4.81655C16.1519 4.73974 17.1047 3.98977 17.2048 3.02294ZM5.1987 18.1601C5.12474 19.7482 6.48437 21.2097 7.91361 21.5712C7.75698 20.0328 6.64535 18.5758 5.1987 18.1601ZM5.8274 21.5757C6.13848 23.1321 7.80701 24.1938 9.27759 24.1735C8.75549 22.7255 7.32843 21.6028 5.8274 21.5757ZM7.45895 24.5349C8.02021 26.0145 9.83884 26.7667 11.2833 26.4866C10.5328 25.1516 8.94258 24.2954 7.45895 24.5349ZM9.8606 27.4218C10.8112 28.6688 12.7604 28.8427 14.0657 28.1379C12.9736 27.0852 11.2137 26.7464 9.8606 27.4218ZM13.1455 29.2764C14.2897 30.3336 16.2389 30.1552 17.4049 29.229C16.1541 28.3887 14.3637 28.3683 13.1455 29.2764ZM23.5113 5.76079C23.0066 5.16217 22.0298 5.12828 21.3946 5.5123C21.9646 6.00927 22.8521 6.13351 23.5113 5.76079ZM24.9427 6.58982C24.4032 5.95054 23.3568 5.91214 22.6781 6.32327C23.2872 6.85638 24.2379 6.98739 24.9427 6.58982ZM26.6004 7.53406C26.1261 6.84056 25.0906 6.69147 24.3749 7.03031C24.9296 7.62442 25.8607 7.85709 26.6004 7.53406ZM27.6271 8.90298C27.2769 8.13494 26.2806 7.80062 25.5192 8.00618C25.9651 8.69064 26.844 9.08596 27.6271 8.90298ZM28.7475 10.5091C28.5909 9.67328 27.7055 9.09499 26.9201 9.09725C27.1899 9.87659 27.9448 10.4865 28.7475 10.5091ZM29.7134 12.5128C29.5241 11.503 28.4538 10.8028 27.5031 10.805C27.8273 11.747 28.7431 12.4834 29.7134 12.5128ZM30.1441 14.6113C30.1658 13.5835 29.2609 12.6641 28.332 12.4563C28.4581 13.448 29.2021 14.3696 30.1441 14.6113ZM30.2659 16.8635C30.403 15.7386 29.5154 14.6181 28.5191 14.2793C28.5473 15.3839 29.2609 16.484 30.2659 16.8635ZM29.944 19.1902C30.3073 18.1195 29.6677 16.8319 28.7627 16.2807C28.5647 17.365 29.0368 18.5984 29.944 19.1902ZM29.2435 21.2413C29.7155 20.1096 29.113 18.6616 28.1732 17.9952C27.8817 19.1563 28.3037 20.5298 29.2435 21.2413ZM28.084 23.4416C28.8214 22.4747 28.5996 20.9161 27.8577 20.0193C27.2856 21.0606 27.353 22.5018 28.084 23.4416ZM26.3741 25.0206C27.2639 24.2051 27.3117 22.6283 26.7331 21.6096C25.9934 22.5312 25.815 23.9611 26.3741 25.0206ZM24.0812 26.6606C25.1733 26.1749 25.6932 24.6953 25.4517 23.5387C24.4706 24.1735 23.8702 25.4724 24.0812 26.6606ZM21.5534 27.7629C22.7173 27.5212 23.52 26.1839 23.5135 25.0002C22.4279 25.4114 21.5817 26.5544 21.5534 27.7629ZM23.3721 3.08619C23.4025 4.33991 24.2835 5.52585 25.4104 5.9528C25.4169 4.72393 24.5816 3.33694 23.3721 3.08619ZM25.7628 3.99203C25.4713 5.2096 26.0173 6.5966 26.9963 7.3172C27.3161 6.13577 26.8658 4.5658 25.7628 3.99203ZM27.6598 5.42194C27.2921 6.61693 27.749 8.0378 28.68 8.82392C29.0738 7.66508 28.7236 6.07026 27.6598 5.42194ZM29.833 6.73439C29.0868 7.92712 29.1782 9.62133 29.9701 10.7689C30.7336 9.62584 30.8098 7.77351 29.833 6.73439ZM31.6995 9.30733C30.6684 10.2448 30.3116 11.8983 30.7728 13.2266C31.8083 12.3411 32.3674 10.5814 31.6995 9.30733ZM33.0831 11.8102C31.7343 12.4924 30.8968 14.137 31.0143 15.6776C32.3543 15.0518 33.4333 13.3576 33.0831 11.8102ZM33.4572 14.6091C33.8097 16.1565 32.7285 17.8507 31.3884 18.4764C31.2709 16.9335 32.1063 15.2913 33.4572 14.6091ZM21.2684 3.02068C21.3685 3.98751 22.3235 4.73748 23.2176 4.81429C22.9826 3.90167 22.1799 3.12911 21.2684 3.02068ZM33.2745 18.1579C31.8279 18.5735 30.7162 20.0306 30.5596 21.5689C31.9888 21.2097 33.3463 19.7482 33.2745 18.1579ZM32.6458 21.5734C31.1448 21.6005 29.7177 22.721 29.1956 24.1712C30.664 24.1938 32.3347 23.1321 32.6458 21.5734ZM31.0143 24.5326C29.5306 24.2932 27.9404 25.1471 27.1899 26.4844C28.6344 26.7645 30.453 26.0122 31.0143 24.5326ZM28.6126 27.4196C27.2595 26.7441 25.4996 27.083 24.4075 28.1357C25.7128 28.8382 27.662 28.6665 28.6126 27.4196ZM25.3277 29.2742C24.1073 28.3661 22.317 28.3841 21.0683 29.2267C22.2365 30.1529 24.1857 30.3336 25.3277 29.2742Z" fill="black"/>
<path id="Vector_5" d="M26.9853 17.6636L26.9744 17.6342C26.9744 17.6342 26.9744 17.6184 26.9744 17.6116H26.9635L24.7294 11.9823C24.8556 11.9236 24.9448 11.7926 24.9448 11.639C24.9448 11.4537 24.8121 11.3069 24.6424 11.2753C24.6424 11.2323 24.6424 11.1917 24.6359 11.1442C24.6163 11.0155 24.588 10.8438 24.4248 10.7286C24.377 10.7038 24.3269 10.6857 24.2921 10.6834C24.2421 10.6744 24.1855 10.6812 24.1399 10.697C24.042 10.7286 23.968 10.7918 23.8984 10.8506C23.7592 10.9726 23.6352 11.1149 23.4938 11.2323C23.3524 11.3521 23.1957 11.4492 23.0217 11.4966C22.9303 11.5215 22.8672 11.5305 22.7563 11.5305C22.6715 11.535 22.5692 11.5125 22.4757 11.5034C22.2886 11.4673 22.1102 11.4131 21.9536 11.3182C21.7948 11.2278 21.6512 11.1149 21.5011 10.9884C21.3466 10.8732 21.1791 10.7489 20.992 10.6744C20.8028 10.6066 20.6135 10.5772 20.446 10.5953C20.3612 10.5953 20.285 10.6111 20.2132 10.6292C20.1415 10.645 20.0718 10.6563 20.0109 10.6812C19.8869 10.7241 19.7782 10.758 19.6999 10.8031C19.6716 10.8167 19.6455 10.8303 19.6215 10.8438V10.2361C19.6215 10.1955 19.5911 10.1639 19.5519 10.1639H19.33C19.2909 10.1639 19.2604 10.1955 19.2604 10.2361V10.8438C19.2365 10.8303 19.2126 10.819 19.1821 10.8031C19.1038 10.7557 18.995 10.7241 18.871 10.6812C18.8101 10.6563 18.7405 10.645 18.6687 10.6292C18.5969 10.6111 18.5186 10.5953 18.4359 10.5953C18.2706 10.5772 18.0792 10.6089 17.8899 10.6744C17.7028 10.7467 17.5353 10.8709 17.3809 10.9884C17.2308 11.1149 17.0872 11.2278 16.9284 11.3182C16.7718 11.4131 16.5912 11.4673 16.4063 11.5034C16.3127 11.5102 16.2105 11.535 16.1257 11.5305C16.0147 11.5305 15.9494 11.5215 15.8603 11.4966C15.6884 11.4492 15.5296 11.3521 15.3882 11.2323C15.2446 11.1149 15.1228 10.9726 14.9836 10.8506C14.9118 10.7896 14.84 10.7286 14.7421 10.697C14.6964 10.6812 14.6399 10.6744 14.5898 10.6834C14.555 10.6857 14.505 10.7038 14.4571 10.7286C14.2961 10.8438 14.2657 11.0155 14.2461 11.1442C14.2396 11.1917 14.2396 11.2323 14.2396 11.2753C14.0699 11.3069 13.9372 11.4537 13.9372 11.639C13.9372 11.7926 14.0264 11.9236 14.1526 11.9823L11.9184 17.6116H11.9075C11.9075 17.6116 11.9075 17.6274 11.9075 17.6342L11.8967 17.6636C11.8814 17.7042 11.8967 17.7404 11.9184 17.772C12.0381 18.6101 13.0823 19.2674 14.3527 19.2674C15.6231 19.2674 16.6673 18.6123 16.787 17.772C16.8109 17.7404 16.824 17.702 16.8087 17.6613L16.7979 17.6342C16.7979 17.6342 16.7979 17.6184 16.7979 17.6094H16.7848L14.4397 11.9823C14.5659 11.9236 14.6551 11.7926 14.6551 11.639C14.6551 11.4379 14.5028 11.2775 14.3135 11.2662C14.3179 11.2323 14.3201 11.1985 14.3288 11.1601C14.3527 11.0426 14.4049 10.9025 14.5115 10.8438C14.6333 10.7873 14.7421 10.8506 14.8618 10.9816C14.9792 11.1058 15.0967 11.2549 15.2446 11.3972C15.3904 11.5373 15.5688 11.6706 15.7798 11.7429C16.0017 11.8242 16.217 11.8174 16.4346 11.8016C16.6499 11.779 16.8718 11.7338 17.0698 11.6344C17.2721 11.5463 17.4483 11.4153 17.6006 11.3001C17.7485 11.1759 17.8856 11.0833 18.0204 11.0087C18.1575 10.9477 18.2945 10.9025 18.4359 10.8935C18.573 10.8777 18.71 10.8799 18.8253 10.889C18.9428 10.9048 19.0472 10.9071 19.1386 10.9274C19.1821 10.9342 19.2213 10.9409 19.2539 10.9477V11.7383C19.0472 11.8152 18.8971 12.0207 18.8971 12.2624C18.8971 12.5041 19.0407 12.7029 19.243 12.782C18.9863 12.8678 18.8014 13.1118 18.8014 13.4077C18.8014 13.7036 18.9928 13.9544 19.2539 14.0357V18.7095H19.1691C19.1081 18.7095 19.0581 18.7614 19.0581 18.8247V19.9564H18.1009C17.8529 19.9564 17.6506 20.1665 17.6506 20.424V20.9797H16.9197C16.8566 20.9797 16.8044 21.0339 16.8044 21.0994V21.6145C16.8044 21.68 16.8566 21.7342 16.9197 21.7342H21.9492C22.0123 21.7342 22.0645 21.68 22.0645 21.6145V21.0994C22.0645 21.0339 22.0123 20.9797 21.9492 20.9797H21.2183V20.4104C21.2183 20.1597 21.0225 19.9564 20.781 19.9564H19.8108V18.8247C19.8108 18.7614 19.7608 18.7095 19.6999 18.7095H19.615V14.0357C19.8761 13.9544 20.0675 13.7059 20.0675 13.4077C20.0675 13.1095 19.8804 12.8678 19.6237 12.782C19.826 12.7007 19.9696 12.4996 19.9696 12.2624C19.9696 12.0252 19.8195 11.8152 19.6128 11.7383V10.9477C19.6476 10.9432 19.6868 10.9364 19.7281 10.9274C19.8173 10.9093 19.9239 10.9071 20.0414 10.889C20.1589 10.8799 20.2959 10.8777 20.4308 10.8935C20.57 10.9025 20.7092 10.9477 20.8463 11.0087C20.979 11.081 21.1182 11.1759 21.2661 11.3001C21.4184 11.4153 21.5946 11.5463 21.7969 11.6344C21.9971 11.7316 22.219 11.779 22.4322 11.8016C22.6497 11.8174 22.8651 11.8242 23.087 11.7429C23.298 11.6683 23.4785 11.5373 23.6243 11.3972C23.77 11.2572 23.8897 11.1058 24.0072 10.9816C24.129 10.8506 24.2356 10.7873 24.3574 10.8438C24.464 10.9003 24.5162 11.0426 24.5401 11.1601C24.5488 11.1962 24.551 11.2301 24.5554 11.2662C24.3661 11.2775 24.2138 11.4379 24.2138 11.639C24.2138 11.7926 24.303 11.9236 24.4292 11.9823L22.0841 17.6094H22.0711C22.0711 17.6094 22.0711 17.6252 22.0711 17.6342L22.0602 17.6613C22.0428 17.702 22.058 17.7404 22.0819 17.772C22.2016 18.6101 23.2458 19.2674 24.5162 19.2674C25.7866 19.2674 26.8308 18.6123 26.9505 17.772C26.9744 17.7404 26.9875 17.702 26.9722 17.6636H26.9853ZM12.1512 17.6116L14.1917 12.4702L14.2396 17.6116H12.1512ZM14.4571 17.6116L14.4093 12.4702L16.5499 17.6116H14.4571ZM24.4227 17.6116H22.3299L24.4705 12.4702L24.4227 17.6116ZM24.6402 17.6116L24.6881 12.4702L26.7286 17.6116H24.6402Z" fill="black"/>
</g>
</g>
<g id="Group_5">
<path id="Vector_6" d="M19.0651 36.5605L19.0238 36.5469C8.86245 33.4273 4.52686 25.0534 2.67776 18.577C1.37905 14.0388 1.31596 6.08727 1.31596 6.00821V5.84105L1.47476 5.85912C1.8163 5.82072 5.682 3.78541 5.682 1.32993V1.18084H32.1697V1.32993C32.1697 3.80122 36.2878 5.82298 36.6685 5.85912L36.8273 5.84105L36.8142 6.00821C36.8142 6.08727 36.749 14.0388 35.4546 18.577C33.6055 25.0534 29.2678 33.4273 19.1064 36.5469L19.0651 36.5605ZM1.60529 6.12342C1.61834 7.12413 1.75321 14.294 2.95404 18.4934C4.7792 24.8907 9.05606 33.1585 19.0651 36.251C29.0763 33.1585 33.3553 24.8907 35.1805 18.4934C36.3792 14.2963 36.5162 7.13091 36.5293 6.12342C36.018 5.96529 34.5496 5.20854 33.4097 4.14684C32.4526 3.25681 31.9435 2.36001 31.8913 1.47902H5.9648C5.91259 2.421 5.37092 3.3788 4.35065 4.32755C3.35214 5.25598 2.07953 5.96755 1.60311 6.12342H1.60529Z" fill="#F5F8FE"/>
<g id="Group_6">
<path id="Vector_7" fill-rule="evenodd" clip-rule="evenodd" d="M18.9759 4.27407C19.089 4.27407 19.2021 4.27407 19.3153 4.28085C19.3 4.28989 19.2848 4.29892 19.2696 4.30796C19.8395 4.80493 20.7271 4.92917 21.3862 4.55644L21.3732 4.54289C22.8786 4.88399 24.273 5.53908 25.4847 6.4404C28.4302 8.57737 30.3576 12.1217 30.3576 16.1358C30.3576 22.6619 25.2628 27.9546 18.9781 27.9546C12.6933 27.9546 7.59635 22.6642 7.59635 16.1358C7.59635 12.1217 9.52376 8.57737 12.4693 6.4404C13.7484 5.49165 15.2277 4.81396 16.8266 4.49093C16.8048 4.51352 16.7853 4.53385 16.7657 4.5587C17.4248 4.93143 18.3124 4.80719 18.8824 4.31022C18.8649 4.29892 18.8475 4.28989 18.8301 4.27859C18.8802 4.27859 18.9302 4.27859 18.9802 4.27859C19.0934 4.27859 19.2065 4.27859 19.3196 4.28311C19.9418 3.93297 20.862 3.97364 21.3623 4.52934C26.716 5.67236 30.7427 10.5946 30.7427 16.4927C30.7427 23.2379 25.476 28.7068 18.9802 28.7068C12.4845 28.7068 7.21782 23.2379 7.21782 16.4927C7.21782 16.1561 7.23087 15.8241 7.25698 15.4965C5.93651 14.855 4.88579 13.1811 5.23168 11.6495C6.4325 12.2572 7.22652 13.6239 7.30484 15.0018C7.927 9.69329 11.8275 5.43743 16.8418 4.47964C17.3465 3.97363 18.2254 3.94427 18.8301 4.27859C18.8802 4.27859 18.9302 4.27859 18.9802 4.27859L18.9759 4.27407ZM14.7991 5.5933C15.4583 5.96602 16.3458 5.84178 16.9158 5.34482C16.2806 4.9608 15.3038 4.99468 14.7991 5.5933ZM13.3677 6.42233C14.0725 6.81991 15.021 6.68889 15.6323 6.15578C14.9536 5.74465 13.9072 5.78305 13.3677 6.42233ZM11.71 7.36657C12.4497 7.6896 13.3808 7.45693 13.9355 6.86283C13.2198 6.52625 12.1843 6.67533 11.71 7.36657ZM10.6832 8.73549C11.4664 8.91847 12.3431 8.52315 12.7912 7.83869C12.0298 7.63539 11.0335 7.96745 10.6832 8.73549ZM9.56291 10.3416C10.3656 10.3168 11.1205 9.70684 11.3903 8.92976C10.6049 8.92976 9.71954 9.50805 9.56291 10.3416ZM8.59703 12.3453C9.56726 12.3159 10.4809 11.5772 10.8072 10.6375C9.85659 10.6375 8.78629 11.3355 8.59703 12.3453ZM8.1663 14.4439C9.10825 14.2021 9.85007 13.2805 9.97841 12.2888C9.04952 12.4966 8.14672 13.416 8.1663 14.4439ZM8.04448 16.696C9.05169 16.3165 9.76522 15.2164 9.7935 14.1118C8.79717 14.4506 7.90743 15.5711 8.04448 16.696ZM8.36644 19.0227C9.27358 18.4309 9.74565 17.1975 9.54769 16.1132C8.64272 16.6644 8.00314 17.9543 8.36644 19.0227ZM9.06692 21.0739C10.0067 20.3623 10.4309 18.9889 10.1372 17.8278C9.19527 18.4941 8.59486 19.9421 9.06692 21.0739ZM10.2264 23.2741C10.9574 22.3344 11.0248 20.8931 10.4548 19.8518C9.71084 20.7486 9.49113 22.3072 10.2264 23.2741ZM11.9363 24.8531C12.4954 23.7936 12.317 22.3637 11.5773 21.4421C10.9987 22.4609 11.0465 24.0353 11.9363 24.8531ZM14.2292 26.4931C14.4402 25.3049 13.8398 24.006 12.8587 23.3712C12.6172 24.5278 13.1371 26.0074 14.2292 26.4931ZM16.757 27.5954C16.7287 26.3869 15.8825 25.2439 14.7969 24.8327C14.7882 26.0164 15.591 27.3537 16.757 27.5954ZM14.9383 2.91871C13.7288 3.16719 12.8935 4.55418 12.8978 5.78531C14.0247 5.36063 14.9057 4.17468 14.9383 2.91871ZM12.5476 3.82454C11.4446 4.39831 10.9943 5.96602 11.3141 7.14971C12.2931 6.42911 12.8391 5.04437 12.5476 3.82454ZM10.6506 5.25446C9.58684 5.90277 9.23442 7.49759 9.63035 8.65643C10.5614 7.87032 11.0183 6.44944 10.6506 5.25446ZM8.47739 6.5669C7.50063 7.60376 7.57677 9.4561 8.34033 10.6014C9.13218 9.45384 9.22137 7.75963 8.47739 6.5669ZM6.61089 9.13984C5.94304 10.4139 6.50211 12.1759 7.53761 13.0591C7.99662 11.7309 7.63986 10.075 6.61089 9.13984ZM4.85316 14.4416C4.50074 15.989 5.57974 17.6832 6.92197 18.3089C7.03944 16.7661 6.20191 15.1238 4.85316 14.4416ZM17.042 2.8532C16.1305 2.96163 15.3256 3.73418 15.0928 4.6468C15.9891 4.56999 16.9419 3.82003 17.042 2.8532ZM5.03589 17.9904C4.96193 19.5784 6.32156 21.04 7.7508 21.4014C7.59417 19.8631 6.48254 18.406 5.03589 17.9904ZM5.66459 21.4059C5.97567 22.9623 7.6442 24.024 9.11478 24.0037C8.59268 22.5557 7.16562 21.433 5.66459 21.4059ZM7.29614 24.3651C7.8574 25.8448 9.67603 26.597 11.1205 26.3169C10.37 24.9818 8.77977 24.1257 7.29614 24.3651ZM9.69779 27.2521C10.6484 28.499 12.5976 28.673 13.9028 27.9682C12.8108 26.9155 11.0509 26.5767 9.69779 27.2521ZM12.9827 29.1067C14.1269 30.1639 16.0761 29.9854 17.2421 29.0592C15.9912 28.2189 14.2009 28.1986 12.9827 29.1067ZM23.3485 5.59104C22.8438 4.99242 21.867 4.95853 21.2318 5.34255C21.8017 5.83952 22.6893 5.96377 23.3485 5.59104ZM24.7799 6.42007C24.2404 5.78079 23.194 5.74239 22.5153 6.15352C23.1244 6.68663 24.075 6.81765 24.7799 6.42007ZM26.4375 7.36431C25.9633 6.67081 24.9278 6.52173 24.2121 6.86057C24.7668 7.45467 25.6979 7.68734 26.4375 7.36431ZM27.4643 8.73324C27.1141 7.96519 26.1178 7.63087 25.3564 7.83643C25.8023 8.5209 26.6812 8.91621 27.4643 8.73324ZM28.5847 10.3393C28.428 9.50354 27.5427 8.92525 26.7573 8.92751C27.0271 9.70684 27.7819 10.3168 28.5847 10.3393ZM29.5506 12.343C29.3613 11.3333 28.291 10.633 27.3403 10.6353C27.6645 11.5772 28.5803 12.3137 29.5506 12.343ZM29.9813 14.4416C30.003 13.4138 29.0981 12.4944 28.1692 12.2866C28.2953 13.2782 29.0393 14.1999 29.9813 14.4416ZM30.1031 16.6938C30.2402 15.5688 29.3526 14.4484 28.3562 14.1095C28.3845 15.2142 29.0981 16.3143 30.1031 16.6938ZM29.7811 19.0205C30.1444 17.9497 29.5049 16.6621 28.5999 16.111C28.4019 17.1952 28.874 18.4286 29.7811 19.0205ZM29.0807 21.0716C29.5527 19.9399 28.9501 18.4919 28.0104 17.8255C27.7189 18.9866 28.1409 20.36 29.0807 21.0716ZM27.9212 23.2718C28.6586 22.305 28.4367 20.7463 27.6949 19.8495C27.1228 20.8909 27.1902 22.3321 27.9212 23.2718ZM26.2113 24.8508C27.101 24.0353 27.1489 22.4586 26.5702 21.4398C25.8306 22.3615 25.6522 23.7914 26.2113 24.8508ZM23.9184 26.4908C25.0105 26.0051 25.5304 24.5255 25.2889 23.3689C24.3078 24.0037 23.7074 25.3026 23.9184 26.4908ZM21.3906 27.5932C22.5544 27.3515 23.3572 26.0142 23.3506 24.8305C22.2651 25.2416 21.4189 26.3846 21.3906 27.5932ZM23.2092 2.91645C23.2397 4.17016 24.1207 5.35611 25.2476 5.78305C25.2541 4.55418 24.4188 3.16719 23.2092 2.91645ZM25.6 3.82228C25.3085 5.03986 25.8545 6.42685 26.8335 7.14745C27.1532 5.96603 26.7029 4.39606 25.6 3.82228ZM27.497 5.2522C27.1293 6.44718 27.5862 7.86806 28.5172 8.65417C28.911 7.49533 28.5607 5.90052 27.497 5.2522ZM29.6702 6.56465C28.924 7.75737 29.0154 9.45158 29.8073 10.5991C30.5708 9.4561 30.647 7.60376 29.6702 6.56465ZM31.5367 9.13759C30.5055 10.075 30.1488 11.7286 30.61 13.0569C31.6455 12.1714 32.2045 10.4116 31.5367 9.13759ZM32.9203 11.6405C31.5715 12.3227 30.734 13.9672 30.8514 15.5078C32.1915 14.8821 33.2705 13.1879 32.9203 11.6405ZM33.2944 14.4393C33.6468 15.9867 32.5657 17.6809 31.2256 18.3067C31.1081 16.7638 31.9435 15.1215 33.2944 14.4393ZM21.1056 2.85094C21.2057 3.81777 22.1607 4.56774 23.0548 4.64454C22.8198 3.73193 22.0171 2.95937 21.1056 2.85094ZM33.1117 17.9881C31.6651 18.4038 30.5534 19.8608 30.3968 21.3991C31.826 21.04 33.1835 19.5784 33.1117 17.9881ZM32.483 21.4037C30.982 21.4308 29.5549 22.5512 29.0328 24.0015C30.5012 24.024 32.1719 22.9623 32.483 21.4037ZM30.8514 24.3629C29.3678 24.1234 27.7776 24.9773 27.0271 26.3146C28.4715 26.5947 30.2902 25.8425 30.8514 24.3629ZM28.4498 27.2498C27.0967 26.5744 25.3368 26.9132 24.2447 27.9659C25.55 28.6684 27.4991 28.4968 28.4498 27.2498ZM25.1649 29.1044C23.9445 28.1963 22.1542 28.2144 20.9055 29.057C22.0737 29.9831 24.0228 30.1639 25.1649 29.1044Z" fill="white"/>
<path id="Vector_8" d="M26.8224 17.4934L26.8115 17.464C26.8115 17.464 26.8115 17.4482 26.8115 17.4415H26.8006L24.5665 11.8122C24.6926 11.7534 24.7818 11.6224 24.7818 11.4688C24.7818 11.2836 24.6491 11.1367 24.4795 11.1051C24.4795 11.0622 24.4795 11.0215 24.4729 10.9741C24.4533 10.8453 24.4251 10.6737 24.2619 10.5585C24.2141 10.5336 24.164 10.5155 24.1292 10.5133C24.0792 10.5042 24.0226 10.511 23.9769 10.5268C23.879 10.5584 23.8051 10.6217 23.7355 10.6804C23.5962 10.8024 23.4722 10.9447 23.3308 11.0622C23.1894 11.1819 23.0328 11.2791 22.8588 11.3265C22.7674 11.3513 22.7043 11.3604 22.5934 11.3604C22.5085 11.3649 22.4063 11.3423 22.3127 11.3333C22.1257 11.2971 21.9473 11.2429 21.7906 11.148C21.6318 11.0577 21.4883 10.9447 21.3382 10.8182C21.1837 10.703 21.0162 10.5788 20.8291 10.5042C20.6399 10.4365 20.4506 10.4071 20.2831 10.4252C20.1983 10.4252 20.1221 10.441 20.0503 10.4591C19.9785 10.4749 19.9089 10.4862 19.848 10.511C19.724 10.5539 19.6152 10.5878 19.5369 10.633C19.5086 10.6465 19.4825 10.6601 19.4586 10.6737V10.066C19.4586 10.0253 19.4282 9.99371 19.389 9.99371H19.1671C19.1279 9.99371 19.0975 10.0253 19.0975 10.066V10.6737C19.0736 10.6601 19.0496 10.6488 19.0192 10.633C18.9409 10.5856 18.8321 10.5539 18.7081 10.511C18.6472 10.4862 18.5776 10.4749 18.5058 10.4591C18.434 10.441 18.3557 10.4252 18.273 10.4252C18.1077 10.4071 17.9162 10.4387 17.727 10.5042C17.5399 10.5765 17.3724 10.7008 17.218 10.8182C17.0678 10.9447 16.9243 11.0577 16.7655 11.148C16.6088 11.2429 16.4283 11.2971 16.2434 11.3333C16.1498 11.34 16.0476 11.3649 15.9627 11.3604C15.8518 11.3604 15.7865 11.3513 15.6973 11.3265C15.5255 11.2791 15.3667 11.1819 15.2253 11.0622C15.0817 10.9447 14.9599 10.8024 14.8206 10.6804C14.7489 10.6194 14.6771 10.5584 14.5792 10.5268C14.5335 10.511 14.4769 10.5042 14.4269 10.5133C14.3921 10.5155 14.3421 10.5336 14.2942 10.5585C14.1332 10.6737 14.1028 10.8453 14.0832 10.9741C14.0767 11.0215 14.0767 11.0622 14.0767 11.1051C13.907 11.1367 13.7743 11.2836 13.7743 11.4688C13.7743 11.6224 13.8635 11.7534 13.9896 11.8122L11.7555 17.4415H11.7446C11.7446 17.4415 11.7446 17.4573 11.7446 17.464L11.7337 17.4934C11.7185 17.5341 11.7337 17.5702 11.7555 17.6018C11.8751 18.4399 12.9193 19.0973 14.1898 19.0973C15.4602 19.0973 16.5044 18.4422 16.6241 17.6018C16.648 17.5702 16.661 17.5318 16.6458 17.4912L16.6349 17.464C16.6349 17.464 16.6349 17.4482 16.6349 17.4392H16.6219L14.2768 11.8122C14.403 11.7534 14.4922 11.6224 14.4922 11.4688C14.4922 11.2678 14.3399 11.1074 14.1506 11.0961C14.155 11.0622 14.1571 11.0283 14.1658 10.9899C14.1898 10.8724 14.242 10.7324 14.3486 10.6737C14.4704 10.6172 14.5792 10.6804 14.6988 10.8115C14.8163 10.9357 14.9338 11.0848 15.0817 11.2271C15.2275 11.3672 15.4058 11.5004 15.6168 11.5727C15.8387 11.654 16.0541 11.6473 16.2716 11.6314C16.487 11.6089 16.7089 11.5637 16.9069 11.4643C17.1092 11.3762 17.2854 11.2452 17.4377 11.13C17.5856 11.0057 17.7226 10.9131 17.8575 10.8386C17.9946 10.7776 18.1316 10.7324 18.273 10.7234C18.4101 10.7075 18.5471 10.7098 18.6624 10.7188C18.7799 10.7346 18.8843 10.7369 18.9757 10.7572C19.0192 10.764 19.0583 10.7708 19.091 10.7776V11.5682C18.8843 11.645 18.7342 11.8506 18.7342 12.0923C18.7342 12.334 18.8778 12.5328 19.0801 12.6141C18.8234 12.6999 18.6385 12.9439 18.6385 13.2398C18.6385 13.5357 18.8299 13.7865 19.091 13.8678V18.5416H19.0061C18.9452 18.5416 18.8952 18.5935 18.8952 18.6568V19.7885H17.938C17.69 19.7885 17.4877 19.9986 17.4877 20.2561V20.8118H16.7568C16.6937 20.8118 16.6415 20.866 16.6415 20.9315V21.4466C16.6415 21.5121 16.6937 21.5663 16.7568 21.5663H21.7863C21.8494 21.5663 21.9016 21.5121 21.9016 21.4466V20.9315C21.9016 20.866 21.8494 20.8118 21.7863 20.8118H21.0554V20.2426C21.0554 19.9918 20.8596 19.7885 20.6181 19.7885H19.6479V18.6568C19.6479 18.5935 19.5978 18.5416 19.5369 18.5416H19.4521V13.8678C19.7131 13.7865 19.9046 13.538 19.9046 13.2398C19.9046 12.9416 19.7175 12.6999 19.4608 12.6141C19.6631 12.5328 19.8067 12.3317 19.8067 12.0923C19.8067 11.8528 19.6566 11.645 19.4499 11.5682V10.7776C19.4847 10.773 19.5239 10.7663 19.5652 10.7572C19.6544 10.7392 19.761 10.7369 19.8785 10.7188C19.9959 10.7098 20.133 10.7075 20.2679 10.7234C20.4071 10.7324 20.5463 10.7776 20.6834 10.8386C20.8161 10.9108 20.9553 11.0057 21.1032 11.13C21.2555 11.2452 21.4317 11.3762 21.634 11.4643C21.8342 11.5614 22.056 11.6089 22.2692 11.6314C22.4868 11.6473 22.7021 11.654 22.924 11.5727C23.1351 11.4982 23.3156 11.3672 23.4614 11.2271C23.6071 11.087 23.7268 10.9357 23.8442 10.8115C23.9661 10.6804 24.0726 10.6172 24.1945 10.6737C24.3011 10.7301 24.3533 10.8724 24.3772 10.9899C24.3859 11.026 24.3881 11.0599 24.3924 11.0961C24.2032 11.1074 24.0509 11.2678 24.0509 11.4688C24.0509 11.6224 24.1401 11.7534 24.2663 11.8122L21.9212 17.4392H21.9081C21.9081 17.4392 21.9081 17.455 21.9081 17.464L21.8972 17.4912C21.8798 17.5318 21.8951 17.5702 21.919 17.6018C22.0386 18.4399 23.0828 19.0973 24.3533 19.0973C25.6237 19.0973 26.6679 18.4422 26.7876 17.6018C26.8115 17.5702 26.8245 17.5318 26.8093 17.4934H26.8224ZM11.9883 17.4415L14.0288 12.3001L14.0767 17.4415H11.9883ZM14.2942 17.4415L14.2463 12.3001L16.3869 17.4415H14.2942ZM24.2597 17.4415H22.167L24.3076 12.3001L24.2597 17.4415ZM24.4773 17.4415L24.5251 12.3001L26.5657 17.4415H24.4773Z" fill="white"/>
</g>
</g>
</g>
</g>
</g>
</g>
</g>
<defs>
<linearGradient id="paint0_linear_554_4740" x1="632" y1="-41" x2="632" y2="339" gradientUnits="userSpaceOnUse">
<stop stop-color="#004B46" stop-opacity="0.15"/>
<stop offset="1" stop-opacity="0"/>
</linearGradient>
<clipPath id="clip0_554_4740">
<rect width="1440" height="2467" fill="white" transform="translate(-88 -41)"/>
</clipPath>
<clipPath id="clip1_554_4740">
<rect width="1440" height="380" fill="white" transform="translate(-88 -41)"/>
</clipPath>
</defs>
</svg>
