<svg aria-hidden="true" style="position: absolute; width: 0; height: 0; overflow: hidden;" version="1.1" xmlns="http://www.w3.org/2000/svg" xmlns:xlink="http://www.w3.org/1999/xlink">
<defs>

<symbol id="icon-Mail" viewBox="0 0 32 32">
<path d="M9.012 4h13.977c1.073-0 1.959-0 2.681 0.059 0.749 0.061 1.438 0.193 2.085 0.522 1.004 0.511 1.82 1.327 2.331 2.331 0.318 0.624 0.452 1.288 0.516 2.007 0.071 0.218 0.084 0.448 0.041 0.667 0.024 0.6 0.024 1.294 0.024 2.092v8.644c0 1.073 0 1.959-0.059 2.681-0.061 0.749-0.193 1.438-0.522 2.086-0.511 1.004-1.327 1.819-2.331 2.331-0.647 0.33-1.336 0.461-2.085 0.522-0.722 0.059-1.607 0.059-2.681 0.059h-13.977c-1.073 0-1.959 0-2.681-0.059-0.749-0.061-1.438-0.193-2.086-0.522-1.004-0.511-1.819-1.327-2.331-2.331-0.33-0.647-0.461-1.336-0.522-2.086-0.059-0.722-0.059-1.607-0.059-2.681v-8.643c0-0.798-0-1.492 0.024-2.092-0.042-0.219-0.030-0.449 0.041-0.667 0.064-0.719 0.198-1.383 0.516-2.007 0.511-1.004 1.327-1.819 2.331-2.331 0.647-0.33 1.336-0.461 2.086-0.522 0.722-0.059 1.607-0.059 2.681-0.059zM4 11.894v8.373c0 0.511 0 0.949 0.005 1.33l6.050-5.464-6.055-4.238zM12.931 14.891c0.015 0.010 0.031 0.021 0.046 0.032l1.341 0.939c0.972 0.68 1.178 0.798 1.36 0.844 0.212 0.053 0.433 0.053 0.645 0 0.182-0.045 0.388-0.163 1.36-0.844l1.341-0.939c0.015-0.011 0.030-0.022 0.046-0.032l8.821-6.175c-0.048-0.276-0.11-0.455-0.18-0.594-0.256-0.502-0.664-0.91-1.165-1.165-0.209-0.106-0.508-0.193-1.092-0.241-0.6-0.049-1.377-0.050-2.519-0.050h-13.867c-1.142 0-1.918 0.001-2.519 0.050-0.585 0.048-0.883 0.134-1.092 0.241-0.502 0.256-0.91 0.664-1.165 1.165-0.071 0.139-0.133 0.317-0.18 0.594l8.821 6.175zM12.296 17.701l-7.548 6.817c0.204 0.211 0.443 0.389 0.708 0.524 0.209 0.106 0.507 0.193 1.092 0.24 0.6 0.049 1.377 0.050 2.519 0.050h13.867c1.142 0 1.919-0.001 2.519-0.050 0.584-0.048 0.883-0.134 1.092-0.24 0.265-0.135 0.504-0.312 0.708-0.524l-7.548-6.817-0.493 0.345c-0.052 0.036-0.103 0.072-0.154 0.108-0.726 0.51-1.364 0.958-2.090 1.139-0.635 0.158-1.3 0.158-1.935 0-0.726-0.181-1.364-0.629-2.090-1.139-0.051-0.036-0.102-0.072-0.154-0.108l-0.493-0.345zM21.945 16.132l6.050 5.464c0.005-0.381 0.005-0.819 0.005-1.33v-8.373l-6.055 4.238z"></path>
</symbol>

<symbol id="icon-icon-facebook" viewBox="0 0 32 32">
<path d="M16 25.6c5.891 0 10.667-4.776 10.667-10.667s-4.776-10.667-10.667-10.667c-5.891 0-10.667 4.776-10.667 10.667s4.776 10.667 10.667 10.667z"></path>
<path fill="#283959" style="fill: var(--color2, #283959)" d="M17.622 12.411c-0.199-0.062-0.428-0.104-0.637-0.104-0.259 0-0.816 0.176-0.816 0.519v0.82h1.324v1.38h-1.324v3.809h-1.334v-3.809h-0.657v-1.38h0.657v-0.695c0-1.048 0.458-1.92 1.562-1.92 0.378 0 1.055 0.021 1.423 0.156l-0.199 1.225z"></path>
</symbol>

<symbol id="icon-icon-instagram" viewBox="0 0 32 32">
<path  d="M16 25.6c5.891 0 10.667-4.776 10.667-10.667s-4.776-10.667-10.667-10.667c-5.891 0-10.667 4.776-10.667 10.667s4.776 10.667 10.667 10.667z"></path>
<path fill="#143254" style="fill: var(--color3, #143254)" d="M14.578 10.904h3.318c1.178 0 2.133 0.955 2.133 2.133v3.319c0 1.178-0.955 2.133-2.133 2.133h-3.319c-1.178 0-2.133-0.955-2.133-2.133v-3.319c0-1.178 0.955-2.133 2.133-2.133z"></path>
<path d="M18.919 10.904h-5.363c-0.613 0-1.111 0.499-1.111 1.111v5.363c0 0.613 0.498 1.111 1.111 1.111h5.363c0.613 0 1.111-0.498 1.111-1.111v-5.363c0-0.613-0.498-1.111-1.111-1.111zM19.585 17.378c0 0.368-0.299 0.667-0.667 0.667h-5.363c-0.368 0-0.667-0.299-0.667-0.667v-5.363c0-0.368 0.299-0.667 0.667-0.667h5.363c0.368 0 0.667 0.299 0.667 0.667v5.363z"></path>
<path fill="#fff" style="fill: var(--color1, #fff)" d="M18.682 11.807c-0.245 0-0.444 0.199-0.444 0.444s0.199 0.444 0.444 0.444c0.245 0 0.444-0.199 0.444-0.444s-0.199-0.444-0.444-0.444z"></path>
<path fill="#fff" style="fill: var(--color1, #fff)" d="M16.237 12.696c-1.103 0-2 0.897-2 2s0.897 2 2 2c1.103 0 2-0.897 2-2s-0.897-2-2-2zM16.237 16.252c-0.858 0-1.556-0.698-1.556-1.556s0.698-1.556 1.556-1.556c0.858 0 1.556 0.698 1.556 1.556s-0.698 1.556-1.556 1.556z"></path>
</symbol>

<symbol id="icon-icon-twitter" viewBox="0 0 32 32">
<path d="M16 25.6c5.891 0 10.667-4.776 10.667-10.667s-4.776-10.667-10.667-10.667c-5.891 0-10.667 4.776-10.667 10.667s4.776 10.667 10.667 10.667z"></path>
<path fill="#143254" style="fill: var(--color3, #143254)" d="M20.423 12.352c-0.31 0.136-0.64 0.226-0.983 0.27 0.354-0.211 0.624-0.543 0.751-0.943-0.33 0.197-0.694 0.336-1.082 0.413-0.313-0.334-0.76-0.54-1.247-0.54-0.945 0-1.706 0.767-1.706 1.707 0 0.135 0.011 0.265 0.040 0.389-1.419-0.069-2.674-0.749-3.518-1.785-0.147 0.255-0.234 0.548-0.234 0.863 0 0.591 0.304 1.115 0.758 1.418-0.274-0.005-0.543-0.085-0.771-0.21 0 0.005 0 0.012 0 0.019 0 0.829 0.592 1.518 1.367 1.677-0.139 0.038-0.29 0.056-0.447 0.056-0.109 0-0.22-0.006-0.323-0.029 0.221 0.676 0.849 1.173 1.595 1.189-0.581 0.454-1.318 0.728-2.116 0.728-0.14 0-0.274-0.006-0.408-0.023 0.756 0.488 1.652 0.766 2.618 0.766 3.141 0 4.858-2.602 4.858-4.857 0-0.075-0.003-0.148-0.006-0.221 0.339-0.24 0.623-0.541 0.855-0.886z"></path>
</symbol>

<symbol id="icon-home-02" viewBox="0 0 32 32">
<path stroke-linejoin="round" stroke-linecap="round" stroke-miterlimit="4" stroke-width="2.4" d="M12 28v-9.867c0-0.747 0-1.12 0.145-1.405 0.128-0.251 0.332-0.455 0.583-0.583 0.285-0.145 0.659-0.145 1.405-0.145h3.733c0.747 0 1.12 0 1.405 0.145 0.251 0.128 0.455 0.332 0.583 0.583 0.145 0.285 0.145 0.659 0.145 1.405v9.867M14.69 3.685l-9.043 7.034c-0.604 0.47-0.907 0.705-1.124 1-0.193 0.261-0.337 0.555-0.424 0.867-0.099 0.353-0.099 0.736-0.099 1.501v9.647c0 1.493 0 2.24 0.291 2.811 0.256 0.502 0.664 0.91 1.165 1.165 0.57 0.291 1.317 0.291 2.811 0.291h15.467c1.494 0 2.24 0 2.811-0.291 0.502-0.256 0.91-0.664 1.165-1.165 0.291-0.571 0.291-1.317 0.291-2.811v-9.647c0-0.766 0-1.149-0.099-1.501-0.087-0.312-0.231-0.606-0.424-0.867-0.218-0.294-0.52-0.53-1.124-1l-9.043-7.034c-0.468-0.364-0.703-0.546-0.961-0.617-0.228-0.062-0.469-0.062-0.697 0-0.259 0.070-0.493 0.252-0.961 0.617z"></path>
</symbol>

<symbol id="icon-file-06" viewBox="0 0 32 32">
<path stroke-linejoin="round" stroke-linecap="round" stroke-miterlimit="4" stroke-width="2.4" d="M18.666 3.026v5.507c0 0.747 0 1.12 0.145 1.405 0.128 0.251 0.332 0.455 0.583 0.583 0.285 0.145 0.659 0.145 1.405 0.145h5.507M21.333 17.333h-10.667M21.333 22.666h-10.667M13.333 12h-2.667M18.666 2.666h-6.933c-2.24 0-3.36 0-4.216 0.436-0.753 0.384-1.365 0.995-1.748 1.748-0.436 0.856-0.436 1.976-0.436 4.216v13.867c0 2.24 0 3.36 0.436 4.216 0.383 0.753 0.995 1.365 1.748 1.748 0.856 0.436 1.976 0.436 4.216 0.436h8.533c2.24 0 3.36 0 4.216-0.436 0.753-0.384 1.365-0.995 1.748-1.748 0.436-0.856 0.436-1.976 0.436-4.216v-12.267l-8-8z"></path>
</symbol>

<symbol id="icon-book-open-01" viewBox="0 0 32 32">
<path stroke-linejoin="round" stroke-linecap="round" stroke-miterlimit="4" stroke-width="2.4" d="M16 28l-0.133-0.2c-0.926-1.389-1.389-2.084-2.001-2.587-0.542-0.445-1.166-0.779-1.837-0.983-0.758-0.23-1.593-0.23-3.262-0.23h-1.833c-1.493 0-2.24 0-2.811-0.291-0.502-0.256-0.91-0.664-1.165-1.165-0.291-0.57-0.291-1.317-0.291-2.811v-11.467c0-1.493 0-2.24 0.291-2.811 0.256-0.502 0.664-0.91 1.165-1.165 0.57-0.291 1.317-0.291 2.811-0.291h0.533c2.987 0 4.48 0 5.621 0.581 1.004 0.511 1.819 1.327 2.331 2.331 0.581 1.141 0.581 2.634 0.581 5.621M16 28v-15.467M16 28l0.133-0.2c0.926-1.389 1.389-2.084 2.001-2.587 0.542-0.445 1.166-0.779 1.837-0.983 0.758-0.23 1.593-0.23 3.262-0.23h1.833c1.493 0 2.24 0 2.811-0.291 0.502-0.256 0.91-0.664 1.165-1.165 0.291-0.57 0.291-1.317 0.291-2.811v-11.467c0-1.493 0-2.24-0.291-2.811-0.256-0.502-0.664-0.91-1.165-1.165-0.57-0.291-1.317-0.291-2.811-0.291h-0.533c-2.987 0-4.48 0-5.621 0.581-1.004 0.511-1.82 1.327-2.331 2.331-0.581 1.141-0.581 2.634-0.581 5.621"></path>
</symbol>

<symbol id="icon-user-circle-1" viewBox="0 0 32 32">
<path stroke-linejoin="round" stroke-linecap="round" stroke-miterlimit="4" stroke-width="2.4" d="M7.089 25.918c0.811-1.911 2.705-3.251 4.912-3.251h8c2.207 0 4.1 1.34 4.912 3.251M21.334 12.666c0 2.946-2.388 5.333-5.333 5.333s-5.333-2.388-5.333-5.333 2.388-5.333 5.333-5.333c2.946 0 5.333 2.388 5.333 5.333zM29.334 16c0 7.364-5.97 13.333-13.333 13.333s-13.333-5.97-13.333-13.333c0-7.364 5.97-13.333 13.333-13.333s13.333 5.97 13.333 13.333z"></path>
</symbol>

<symbol id="icon-search-md" viewBox="0 0 32 32">
<path stroke-linejoin="round" stroke-linecap="round" stroke-miterlimit="4" stroke-width="2.4" d="M28 28l-5.8-5.8M25.333 14.667c0 5.891-4.776 10.667-10.667 10.667s-10.667-4.776-10.667-10.667c0-5.891 4.776-10.667 10.667-10.667s10.667 4.776 10.667 10.667z"></path>
</symbol>

<symbol id="icon-file-download-03" viewBox="0 0 32 32">
<path stroke-linejoin="round" stroke-linecap="round" stroke-miterlimit="4" stroke-width="2.4" d="M18.666 3.027v5.507c0 0.747 0 1.12 0.145 1.405 0.128 0.251 0.332 0.455 0.583 0.583 0.285 0.145 0.659 0.145 1.405 0.145h5.507M11.999 20l4 4M15.999 24l4-4M15.999 24v-8M18.666 2.667h-6.933c-2.24 0-3.36 0-4.216 0.436-0.753 0.384-1.365 0.995-1.748 1.748-0.436 0.856-0.436 1.976-0.436 4.216v13.867c0 2.24 0 3.36 0.436 4.216 0.383 0.753 0.995 1.365 1.748 1.748 0.856 0.436 1.976 0.436 4.216 0.436h8.533c2.24 0 3.36 0 4.216-0.436 0.753-0.384 1.365-0.996 1.748-1.748 0.436-0.856 0.436-1.976 0.436-4.216v-12.267l-8-8z"></path>
</symbol>

<symbol id="icon-file-05" viewBox="0 0 32 32">
<path stroke-linejoin="round" stroke-linecap="round" stroke-miterlimit="4" stroke-width="1.92" d="M18.56 3.545v5.287c0 0.717 0 1.075 0.14 1.349 0.123 0.241 0.318 0.437 0.559 0.559 0.274 0.139 0.632 0.139 1.349 0.139h5.287M18.56 22.4h-7.68M21.12 17.28h-10.24M26.24 13.425v9.231c0 2.151 0 3.226-0.419 4.047-0.368 0.723-0.956 1.31-1.678 1.678-0.822 0.419-1.897 0.419-4.047 0.419h-8.192c-2.151 0-3.226 0-4.047-0.419-0.723-0.368-1.31-0.956-1.678-1.678-0.419-0.822-0.419-1.897-0.419-4.047v-13.312c0-2.151 0-3.226 0.419-4.047 0.368-0.723 0.956-1.31 1.678-1.678 0.821-0.419 1.897-0.419 4.047-0.419h4.111c0.939 0 1.409 0 1.851 0.106 0.392 0.094 0.766 0.249 1.11 0.46 0.387 0.237 0.72 0.57 1.384 1.234l4.081 4.081c0.664 0.664 0.996 0.996 1.234 1.384 0.211 0.344 0.366 0.718 0.46 1.11 0.106 0.442 0.106 0.912 0.106 1.851z"></path>
</symbol>

<symbol id="icon-clipboard" viewBox="0 0 32 32">
<path stroke-linejoin="round" stroke-linecap="round" stroke-miterlimit="4" stroke-width="2.4" d="M21.333 5.333c1.24 0 1.86 0 2.369 0.136 1.38 0.37 2.459 1.448 2.828 2.828 0.136 0.509 0.136 1.129 0.136 2.369v12.267c0 2.24 0 3.36-0.436 4.216-0.384 0.753-0.996 1.365-1.748 1.748-0.856 0.436-1.976 0.436-4.216 0.436h-8.533c-2.24 0-3.36 0-4.216-0.436-0.753-0.384-1.365-0.995-1.748-1.748-0.436-0.856-0.436-1.976-0.436-4.216v-12.267c0-1.24 0-1.86 0.136-2.369 0.37-1.38 1.448-2.459 2.828-2.828 0.509-0.136 1.129-0.136 2.369-0.136M12.799 8h6.4c0.747 0 1.12 0 1.405-0.145 0.251-0.128 0.455-0.332 0.583-0.583 0.145-0.285 0.145-0.659 0.145-1.405v-1.067c0-0.747 0-1.12-0.145-1.405-0.128-0.251-0.332-0.455-0.583-0.583-0.285-0.145-0.659-0.145-1.405-0.145h-6.4c-0.747 0-1.12 0-1.405 0.145-0.251 0.128-0.455 0.332-0.583 0.583-0.145 0.285-0.145 0.659-0.145 1.405v1.067c0 0.747 0 1.12 0.145 1.405 0.128 0.251 0.332 0.455 0.583 0.583 0.285 0.145 0.659 0.145 1.405 0.145z"></path>
</symbol>

<symbol id="icon-duplexdoc" viewBox="0 0 32 32">
<path stroke-linejoin="round" stroke-linecap="round" stroke-miterlimit="4" stroke-width="2.4" d="M22.667 17.867v4c0 5.333-2.133 7.467-7.467 7.467h-5.067c-5.333 0-7.467-2.133-7.467-7.467v-5.067c0-5.333 2.133-7.467 7.467-7.467h4"></path>
<path stroke-linejoin="round" stroke-linecap="round" stroke-miterlimit="4" stroke-width="2.4" d="M22.666 17.867h-4.267c-3.2 0-4.267-1.067-4.267-4.267v-4.267l8.533 8.533z"></path>
<path stroke-linejoin="round" stroke-linecap="round" stroke-miterlimit="4" stroke-width="2.4" d="M15.467 2.666h5.333"></path>
<path stroke-linejoin="round" stroke-linecap="round" stroke-miterlimit="4" stroke-width="2.4" d="M9.333 6.666c0-2.213 1.787-4 4-4h3.493"></path>
<path stroke-linejoin="round" stroke-linecap="round" stroke-miterlimit="4" stroke-width="2.4" d="M29.333 10.666v8.253c0 2.067-1.68 3.747-3.747 3.747"></path>
<path stroke-linejoin="round" stroke-linecap="round" stroke-miterlimit="4" stroke-width="2.4" d="M29.333 10.666h-4c-3 0-4-1-4-4v-4l8 8z"></path>
</symbol>

<symbol id="icon-history-7611-1" viewBox="0 0 32 32">
<path  d="M17.328 30.442c-4.684 0-9.099-2.285-11.809-6.113-0.819-1.157-1.462-2.424-1.91-3.764l1.969-0.657c0.383 1.147 0.933 2.231 1.635 3.222 2.322 3.279 6.103 5.236 10.115 5.236 6.829 0 12.385-5.556 12.385-12.385s-5.556-12.385-12.385-12.385c-6.829 0-12.385 5.556-12.385 12.385h-2.076c0-7.974 6.487-14.461 14.461-14.461s14.461 6.487 14.461 14.461c0 7.974-6.487 14.461-14.461 14.461z"></path>
<path  d="M22.892 21.844l-6.6-5.367v-9.617h2.072v8.627l5.838 4.745-1.31 1.612z"></path>
<path  d="M7.634 14.37l-3.727 3.727-3.73-3.727h7.457z"></path>
</symbol>

<symbol id="icon-file-04" viewBox="0 0 32 32">
<path stroke-linejoin="round" stroke-linecap="round" stroke-miterlimit="4" stroke-width="2.4" d="M18.666 3.026v5.507c0 0.747 0 1.12 0.145 1.405 0.128 0.251 0.332 0.455 0.583 0.583 0.285 0.145 0.659 0.145 1.405 0.145h5.507M26.666 13.317v9.616c0 2.24 0 3.36-0.436 4.216-0.384 0.753-0.996 1.365-1.748 1.748-0.856 0.436-1.976 0.436-4.216 0.436h-8.533c-2.24 0-3.36 0-4.216-0.436-0.753-0.384-1.365-0.995-1.748-1.748-0.436-0.856-0.436-1.976-0.436-4.216v-13.867c0-2.24 0-3.36 0.436-4.216 0.383-0.753 0.995-1.365 1.748-1.748 0.856-0.436 1.976-0.436 4.216-0.436h4.282c0.978 0 1.468 0 1.928 0.111 0.408 0.098 0.798 0.26 1.156 0.479 0.404 0.247 0.749 0.593 1.441 1.285l4.251 4.251c0.692 0.692 1.038 1.038 1.285 1.441 0.219 0.358 0.381 0.748 0.479 1.156 0.11 0.46 0.11 0.95 0.11 1.928z"></path>
<path stroke-linejoin="round" stroke-linecap="round" stroke-miterlimit="4" stroke-width="1.6" d="M17.333 18.667l2.667-2.667h-8"></path>
<path stroke-linejoin="round" stroke-linecap="round" stroke-miterlimit="4" stroke-width="1.6" d="M20 22.666h-8l2.667 2.667"></path>
<path stroke-linejoin="round" stroke-linecap="round" stroke-miterlimit="4" stroke-width="1.6" d="M12 22.667l2.667-2.667"></path>
</symbol>

<symbol id="icon-pencil-02" viewBox="0 0 32 32">
<path stroke-linejoin="round" stroke-linecap="round" stroke-miterlimit="4" stroke-width="3.2" d="M24 2.666l5.333 5.333M2.667 29.333l1.702-6.24c0.111-0.407 0.167-0.611 0.252-0.801 0.076-0.168 0.169-0.329 0.277-0.478 0.123-0.168 0.272-0.317 0.57-0.616l13.778-13.778c0.264-0.264 0.396-0.396 0.548-0.445 0.134-0.043 0.278-0.043 0.412 0 0.152 0.049 0.284 0.181 0.548 0.445l3.825 3.825c0.264 0.264 0.396 0.396 0.445 0.548 0.044 0.134 0.044 0.278 0 0.412-0.049 0.152-0.181 0.284-0.445 0.548l-13.778 13.778c-0.298 0.298-0.448 0.448-0.616 0.57-0.149 0.109-0.31 0.202-0.478 0.277-0.19 0.085-0.393 0.141-0.8 0.252l-6.24 1.702z"></path>
</symbol>

<symbol id="icon-type-01" viewBox="0 0 32 32">
<path stroke-linejoin="round" stroke-linecap="round" stroke-miterlimit="4" stroke-width="3.2" d="M5.333 9.334c0-1.242 0-1.864 0.203-2.354 0.271-0.653 0.79-1.173 1.443-1.443 0.49-0.203 1.111-0.203 2.354-0.203h13.333c1.243 0 1.864 0 2.354 0.203 0.653 0.271 1.172 0.79 1.443 1.443 0.203 0.49 0.203 1.111 0.203 2.354M11.999 26.667h8M15.999 5.334v21.333"></path>
</symbol>

<symbol id="icon-sr-printer" viewBox="0 0 32 32">
<path d="M26.666 8c0 0.736-0.597 1.333-1.333 1.333s-1.333-0.597-1.333-1.333c0-0.736 0.597-1.333 1.333-1.333s1.333 0.597 1.333 1.333z"></path>
<path d="M20 9.334c0.736 0 1.333-0.597 1.333-1.333s-0.597-1.333-1.333-1.333c-0.736 0-1.333 0.597-1.333 1.333s0.597 1.333 1.333 1.333z"></path>
<path d="M11.999 16c-0.736 0-1.333 0.597-1.333 1.333s0.597 1.333 1.333 1.333h8c0.736 0 1.333-0.597 1.333-1.333s-0.597-1.333-1.333-1.333h-8z"></path>
<path d="M11.999 21.334c-0.736 0-1.333 0.597-1.333 1.333s0.597 1.333 1.333 1.333h5.333c0.736 0 1.333-0.597 1.333-1.333s-0.597-1.333-1.333-1.333h-5.333z"></path>
<path d="M1.333 5.334c0-2.209 1.791-4 4-4h21.333c2.209 0 4 1.791 4 4v9.333c0 2.209-1.791 4-4 4v8c0 2.209-1.791 4-4 4h-13.333c-2.209 0-4-1.791-4-4v-8c-2.209 0-4-1.791-4-4v-9.333zM28 14.667v-9.333c0-0.736-0.597-1.333-1.333-1.333h-21.333c-0.736 0-1.333 0.597-1.333 1.333v9.333c0 0.736 0.597 1.333 1.333 1.333v-4c0-0.736 0.597-1.333 1.333-1.333h18.667c0.736 0 1.333 0.597 1.333 1.333v4c0.736 0 1.333-0.597 1.333-1.333zM7.999 13.334v13.333c0 0.736 0.597 1.333 1.333 1.333h13.333c0.736 0 1.333-0.597 1.333-1.333v-13.333h-16z"></path>
</symbol>

<svg width="0" height="0" class="hidden">
  <symbol viewBox="0 0 20 20" id="Download1">
    <path fill-rule="evenodd" clip-rule="evenodd" d="M10.0003 1.6665C10.4606 1.6665 10.8337 2.0396 10.8337 2.49984V10.488L13.5777 7.74392C13.9032 7.41848 14.4308 7.41848 14.7562 7.74392C15.0817 8.06935 15.0817 8.59699 14.7562 8.92243L10.5896 13.0891C10.2641 13.4145 9.73651 13.4145 9.41107 13.0891L5.2444 8.92243C4.91897 8.59699 4.91897 8.06935 5.2444 7.74392C5.56984 7.41848 6.09748 7.41848 6.42291 7.74392L9.16699 10.488V2.49984C9.16699 2.0396 9.54009 1.6665 10.0003 1.6665ZM2.50033 11.6665C2.96056 11.6665 3.33366 12.0396 3.33366 12.4998V13.4998C3.33366 14.2137 3.33431 14.6989 3.36495 15.074C3.3948 15.4393 3.44891 15.6262 3.51532 15.7565C3.6751 16.0701 3.93007 16.3251 4.24368 16.4848C4.37401 16.5513 4.56084 16.6054 4.92619 16.6352C5.30127 16.6659 5.78651 16.6665 6.50033 16.6665H13.5003C14.2141 16.6665 14.6994 16.6659 15.0745 16.6352C15.4398 16.6054 15.6266 16.5513 15.757 16.4848C16.0706 16.3251 16.3255 16.0701 16.4853 15.7565C16.5517 15.6262 16.6058 15.4393 16.6357 15.074C16.6663 14.6989 16.667 14.2137 16.667 13.4998V12.4998C16.667 12.0396 17.0401 11.6665 17.5003 11.6665C17.9606 11.6665 18.3337 12.0396 18.3337 12.4998V13.5343C18.3337 14.2051 18.3337 14.7587 18.2968 15.2097C18.2586 15.6781 18.1764 16.1087 17.9703 16.5131C17.6508 17.1403 17.1408 17.6503 16.5136 17.9699C16.1092 18.1759 15.6786 18.2581 15.2102 18.2963C14.7592 18.3332 14.2056 18.3332 13.5348 18.3332H6.46589C5.79509 18.3332 5.24146 18.3332 4.79047 18.2963C4.32206 18.2581 3.89147 18.1759 3.48702 17.9699C2.85982 17.6503 2.34988 17.1403 2.0303 16.5131C1.82423 16.1087 1.74209 15.6781 1.70382 15.2097C1.66697 14.7587 1.66698 14.2051 1.66699 13.5343L1.66699 12.4998C1.66699 12.0396 2.04009 11.6665 2.50033 11.6665Z" ></path>
  </symbol>
</svg>

<symbol id="icon-clock" viewBox="0 0 32 32">
<path stroke-linejoin="round" stroke-linecap="round" stroke-miterlimit="4" stroke-width="3.2" d="M16 8v8l5.333 2.667M29.334 16c0 7.364-5.97 13.333-13.333 13.333s-13.333-5.97-13.333-13.333c0-7.364 5.97-13.333 13.333-13.333s13.333 5.97 13.333 13.333z"></path>
</symbol>

<symbol id="icon-slash-circle-01" viewBox="0 0 32 32">
<path stroke-linejoin="round" stroke-linecap="round" stroke-miterlimit="4" stroke-width="3.2" d="M6.574 6.573l18.853 18.853M29.334 16c0 7.364-5.97 13.333-13.333 13.333s-13.333-5.97-13.333-13.333c0-7.364 5.97-13.333 13.333-13.333s13.333 5.97 13.333 13.333z"></path>
</symbol>


<symbol id="icon-left" viewBox="0 0 32 32">
<path d="M20.943 7.057c0.521 0.521 0.521 1.365 0 1.886l-7.057 7.057 7.057 7.057c0.521 0.521 0.521 1.365 0 1.886s-1.365 0.521-1.886 0l-8-8c-0.521-0.521-0.521-1.365 0-1.886l8-8c0.521-0.521 1.365-0.521 1.886 0z"></path>
</symbol>
<symbol id="icon-close" viewBox="0 0 32 32">
<path d="M7.057 7.057c0.521-0.521 1.365-0.521 1.886 0l7.057 7.057 7.057-7.057c0.521-0.521 1.365-0.521 1.886 0s0.521 1.365 0 1.886l-7.057 7.057 7.057 7.057c0.521 0.521 0.521 1.365 0 1.886s-1.365 0.521-1.886 0l-7.057-7.057-7.057 7.057c-0.521 0.521-1.365 0.521-1.886 0s-0.521-1.365 0-1.886l7.057-7.057-7.057-7.057c-0.521-0.521-0.521-1.365 0-1.886z"></path>
</symbol>
<symbol id="icon-up" viewBox="0 0 32 32">
<path d="M15.057 11.057c0.521-0.521 1.365-0.521 1.886 0l8 8c0.521 0.521 0.521 1.365 0 1.886s-1.365 0.521-1.886 0l-7.057-7.057-7.057 7.057c-0.521 0.521-1.365 0.521-1.886 0s-0.521-1.365 0-1.886l8-8z"></path>
</symbol>
<symbol id="icon-down" viewBox="0 0 32 32">
<path d="M7.057 11.057c0.521-0.521 1.365-0.521 1.886 0l7.057 7.057 7.057-7.057c0.521-0.521 1.365-0.521 1.886 0s0.521 1.365 0 1.886l-8 8c-0.521 0.521-1.365 0.521-1.886 0l-8-8c-0.521-0.521-0.521-1.365 0-1.886z"></path>
</symbol>
<symbol id="icon-right" viewBox="0 0 32 32">
<path d="M11.057 7.057c0.521-0.521 1.365-0.521 1.886 0l8 8c0.521 0.521 0.521 1.365 0 1.886l-8 8c-0.521 0.521-1.365 0.521-1.886 0s-0.521-1.365 0-1.886l7.057-7.057-7.057-7.057c-0.521-0.521-0.521-1.365 0-1.886z"></path>
</symbol>
<symbol id="icon-download" viewBox="0 0 32 32">
<path d="M16 2.666c0.736 0 1.333 0.597 1.333 1.333v12.781l4.39-4.391c0.521-0.521 1.365-0.521 1.886 0s0.521 1.365 0 1.886l-6.667 6.667c-0.521 0.521-1.365 0.521-1.886 0l-6.667-6.667c-0.521-0.521-0.521-1.365 0-1.886s1.365-0.521 1.886 0l4.39 4.391v-12.781c0-0.736 0.597-1.333 1.333-1.333zM4 18.666c0.736 0 1.333 0.597 1.333 1.333v1.6c0 1.142 0.001 1.919 0.050 2.519 0.048 0.584 0.134 0.884 0.241 1.092 0.256 0.502 0.664 0.91 1.165 1.165 0.209 0.106 0.507 0.193 1.092 0.241 0.6 0.049 1.377 0.050 2.519 0.050h11.2c1.142 0 1.919-0.001 2.519-0.050 0.584-0.048 0.884-0.134 1.092-0.241 0.502-0.256 0.91-0.664 1.165-1.165 0.106-0.208 0.193-0.508 0.241-1.092 0.049-0.6 0.050-1.376 0.050-2.519v-1.6c0-0.736 0.597-1.333 1.333-1.333s1.333 0.597 1.333 1.333v1.655c0 1.073 0 1.959-0.059 2.681-0.061 0.749-0.193 1.438-0.522 2.085-0.511 1.004-1.327 1.82-2.331 2.331-0.647 0.33-1.336 0.461-2.085 0.522-0.722 0.059-1.607 0.059-2.681 0.059h-11.31c-1.073 0-1.959 0-2.681-0.059-0.749-0.061-1.438-0.193-2.085-0.522-1.004-0.511-1.819-1.327-2.331-2.331-0.33-0.647-0.461-1.336-0.522-2.085-0.059-0.722-0.059-1.607-0.059-2.681v-1.655c0-0.736 0.597-1.333 1.333-1.333z"></path>
</symbol>

<symbol id="icon-clear" viewBox="0 0 32 32">
<path d="M25.333 16c0 5.155-4.179 9.333-9.333 9.333s-9.333-4.179-9.333-9.333c0-5.155 4.179-9.333 9.333-9.333s9.333 4.179 9.333 9.333zM17.924 12.889l-1.924 1.924-1.924-1.924-1.187 1.187 1.924 1.924-1.924 1.924 1.187 1.187 1.924-1.925 1.924 1.925 1.187-1.187-1.925-1.924 1.925-1.924-1.187-1.187z"></path>
</symbol>

<svg xmlns="http://www.w3.org/2000/svg" width="24" height="24" viewBox="0 0 24 24" fill="none" id="icon-up1">
  <path fill-rule="evenodd" clip-rule="evenodd" d="M11.2929 8.29289C11.6834 7.90237 12.3166 7.90237 12.7071 8.29289L18.7071 14.2929C19.0976 14.6834 19.0976 15.3166 18.7071 15.7071C18.3166 16.0976 17.6834 16.0976 17.2929 15.7071L12 10.4142L6.70711 15.7071C6.31658 16.0976 5.68342 16.0976 5.29289 15.7071C4.90237 15.3166 4.90237 14.6834 5.29289 14.2929L11.2929 8.29289Z" fill="#151622"/>
</svg>
<symbol  id="icon-language" viewBox="0 0 20 20" fill="none">
<g clip-path="url(#clip0_57_1098)">
<path d="M10 20C15.5228 20 20 15.5228 20 10C20 4.47715 15.5228 0 10 0C4.47715 0 0 4.47715 0 10C0 15.5228 4.47715 20 10 20Z" fill="#FFDA44"/>
<path d="M0 10C0 4.47719 4.47719 0 10 0C15.5228 0 20 4.47719 20 10" fill="#338AF3"/>
</g>
</symbol>

<symbol id="icon-user" viewBox="0 0 32 32">
<path stroke-linejoin="round" stroke-linecap="round" stroke-miterlimit="4" stroke-width="2.4" d="M7.089 25.918c0.811-1.911 2.705-3.251 4.912-3.251h8c2.207 0 4.1 1.34 4.912 3.251M21.334 12.666c0 2.946-2.388 5.333-5.333 5.333s-5.333-2.388-5.333-5.333 2.388-5.333 5.333-5.333c2.946 0 5.333 2.388 5.333 5.333zM29.334 16c0 7.364-5.97 13.333-13.333 13.333s-13.333-5.97-13.333-13.333c0-7.364 5.97-13.333 13.333-13.333s13.333 5.97 13.333 13.333z"></path>
</symbol>

<symbol id="icon-arrow-down" viewBox="0 0 32 32">
<path  d="M16 5.333c0.736 0 1.333 0.597 1.333 1.333v15.448l7.057-7.057c0.521-0.521 1.365-0.521 1.886 0s0.521 1.365 0 1.886l-9.333 9.333c-0.521 0.521-1.365 0.521-1.886 0l-9.333-9.333c-0.521-0.521-0.521-1.365 0-1.886s1.365-0.521 1.886 0l7.057 7.057v-15.448c0-0.736 0.597-1.333 1.333-1.333z"></path>
</symbol>
<symbol id="icon-arrow-up" viewBox="0 0 32 32">
<path stroke-linejoin="round" stroke-linecap="round" stroke-miterlimit="4" stroke-width="3.2" d="M16 26.667v-21.333M16 5.333l-8 8M16 5.333l8 8"></path>
</symbol>

<symbol id="icon-file-download" viewBox="0 0 32 32">
<path fill="none"  stroke-linejoin="round" stroke-linecap="round" stroke-miterlimit="4" stroke-width="2.4" d="M18.667 3.026v5.507c0 0.747 0 1.12 0.145 1.405 0.128 0.251 0.332 0.455 0.583 0.583 0.285 0.145 0.659 0.145 1.405 0.145h5.507M12 20l4 4M16 24l4-4M16 24v-8M18.667 2.667h-6.933c-2.24 0-3.36 0-4.216 0.436-0.753 0.384-1.365 0.995-1.748 1.748-0.436 0.856-0.436 1.976-0.436 4.216v13.867c0 2.24 0 3.36 0.436 4.216 0.383 0.753 0.995 1.364 1.748 1.748 0.856 0.436 1.976 0.436 4.216 0.436h8.533c2.24 0 3.36 0 4.216-0.436 0.753-0.384 1.365-0.995 1.748-1.748 0.436-0.856 0.436-1.976 0.436-4.216v-12.267l-8-8z"></path>
</symbol>
</defs>
</svg>


