<svg aria-hidden="true" style="position: absolute; width: 0; height: 0; overflow: hidden;" version="1.1" xmlns="http://www.w3.org/2000/svg" xmlns:xlink="http://www.w3.org/1999/xlink">
<defs>
<symbol id="icon-instagram" viewBox="0 0 32 32">
<path fill="#000" style="fill: var(--color1, #000)" d="M10 2h12c4.418 0 8 3.582 8 8v12c0 4.418-3.582 8-8 8h-12c-4.418 0-8-3.582-8-8v-12c0-4.418 3.582-8 8-8z"></path>
<path fill="#000" style="fill: var(--color1, #000)" d="M10 2h12c4.418 0 8 3.582 8 8v12c0 4.418-3.582 8-8 8h-12c-4.418 0-8-3.582-8-8v-12c0-4.418 3.582-8 8-8z"></path>
<path fill="#000" style="fill: var(--color1, #000)" d="M10 2h12c4.418 0 8 3.582 8 8v12c0 4.418-3.582 8-8 8h-12c-4.418 0-8-3.582-8-8v-12c0-4.418 3.582-8 8-8z"></path>
<path fill="#fff" style="fill: var(--color2, #fff)" d="M23 10.5c0 0.828-0.672 1.5-1.5 1.5s-1.5-0.672-1.5-1.5c0-0.828 0.672-1.5 1.5-1.5s1.5 0.672 1.5 1.5z"></path>
<path fill="#fff" style="fill: var(--color2, #fff)" d="M16 21c-2.761 0-5-2.239-5-5s2.239-5 5-5c2.761 0 5 2.239 5 5s-2.239 5-5 5zM16 19c1.657 0 3-1.343 3-3s-1.343-3-3-3c-1.657 0-3 1.343-3 3s1.343 3 3 3z"></path>
<path fill="#fff" style="fill: var(--color2, #fff)" d="M6 15.6v0.8c0 3.36 0 5.041 0.654 6.324 0.575 1.129 1.493 2.047 2.622 2.622 1.283 0.654 2.964 0.654 6.324 0.654h0.8c3.36 0 5.041 0 6.324-0.654 1.129-0.575 2.047-1.493 2.622-2.622 0.654-1.283 0.654-2.964 0.654-6.324v-0.8c0-3.36 0-5.040-0.654-6.324-0.575-1.129-1.493-2.047-2.622-2.622-1.283-0.654-2.964-0.654-6.324-0.654h-0.8c-3.36 0-5.040 0-6.324 0.654-1.129 0.575-2.047 1.493-2.622 2.622-0.654 1.283-0.654 2.964-0.654 6.324zM15.6 8h0.8c1.713 0 2.878 0.002 3.778 0.075 0.877 0.072 1.325 0.201 1.638 0.361 0.753 0.383 1.365 0.995 1.748 1.748 0.159 0.313 0.289 0.761 0.361 1.638 0.073 0.9 0.075 2.065 0.075 3.778v0.8c0 1.713-0.002 2.878-0.075 3.778-0.072 0.877-0.201 1.325-0.361 1.638-0.383 0.753-0.995 1.365-1.748 1.748-0.313 0.159-0.761 0.289-1.638 0.361-0.9 0.073-2.065 0.075-3.778 0.075h-0.8c-1.713 0-2.878-0.002-3.778-0.075-0.877-0.072-1.325-0.201-1.638-0.361-0.753-0.383-1.365-0.995-1.748-1.748-0.159-0.313-0.289-0.761-0.361-1.638-0.074-0.9-0.075-2.065-0.075-3.778v-0.8c0-1.713 0.002-2.878 0.075-3.778 0.072-0.877 0.201-1.325 0.361-1.638 0.383-0.753 0.995-1.365 1.748-1.748 0.313-0.159 0.761-0.289 1.638-0.361 0.9-0.074 2.065-0.075 3.778-0.075z"></path>
</symbol>
<symbol id="icon-twitter" viewBox="0 0 32 32">
<path fill="#47acdf" style="fill: var(--color3, #47acdf)" d="M11.789 28c-3.235 0-6.251-0.941-8.789-2.564 2.155 0.139 5.958-0.195 8.324-2.451-3.559-0.163-5.163-2.893-5.373-4.059 0.302 0.117 1.744 0.257 2.558-0.070-4.093-1.026-4.721-4.619-4.582-5.715 0.768 0.537 2.070 0.723 2.582 0.677-3.814-2.729-2.442-6.835-1.768-7.721 2.737 3.792 6.84 5.922 11.915 6.041-0.096-0.42-0.146-0.857-0.146-1.305 0-3.221 2.603-5.832 5.815-5.832 1.678 0 3.19 0.713 4.251 1.853 1.121-0.263 2.809-0.878 3.633-1.41-0.416 1.493-1.71 2.738-2.493 3.2-0.006-0.016 0.007 0.016 0 0 0.688-0.104 2.549-0.462 3.284-0.961-0.364 0.839-1.736 2.233-2.862 3.014 0.21 9.242-6.861 17.304-16.349 17.304z"></path>
</symbol>
<symbol id="icon-facebook" viewBox="0 0 32 32">
<path fill="#000" style="fill: var(--color1, #000)" d="M30 16c0 7.732-6.268 14-14 14s-14-6.268-14-14c0-7.732 6.268-14 14-14s14 6.268 14 14z"></path>
<path fill="#fff" style="fill: var(--color2, #fff)" d="M21.214 20.282l0.622-3.951h-3.89v-2.563c0-1.081 0.542-2.136 2.285-2.136h1.77v-3.364c0 0-1.605-0.267-3.14-0.267-3.205 0-5.299 1.893-5.299 5.318v3.012h-3.562v3.951h3.562v9.553c0.715 0.109 1.447 0.165 2.192 0.165s1.477-0.056 2.192-0.165v-9.553h3.269z"></path>
</symbol>
<symbol id="icon-left" viewBox="0 0 32 32">
<path d="M20.943 7.057c0.521 0.521 0.521 1.365 0 1.886l-7.057 7.057 7.057 7.057c0.521 0.521 0.521 1.365 0 1.886s-1.365 0.521-1.886 0l-8-8c-0.521-0.521-0.521-1.365 0-1.886l8-8c0.521-0.521 1.365-0.521 1.886 0z"></path>
</symbol>
<symbol id="icon-close" viewBox="0 0 32 32">
<path d="M7.057 7.057c0.521-0.521 1.365-0.521 1.886 0l7.057 7.057 7.057-7.057c0.521-0.521 1.365-0.521 1.886 0s0.521 1.365 0 1.886l-7.057 7.057 7.057 7.057c0.521 0.521 0.521 1.365 0 1.886s-1.365 0.521-1.886 0l-7.057-7.057-7.057 7.057c-0.521 0.521-1.365 0.521-1.886 0s-0.521-1.365 0-1.886l7.057-7.057-7.057-7.057c-0.521-0.521-0.521-1.365 0-1.886z"></path>
</symbol>
<symbol id="icon-up" viewBox="0 0 32 32">
<path d="M15.057 11.057c0.521-0.521 1.365-0.521 1.886 0l8 8c0.521 0.521 0.521 1.365 0 1.886s-1.365 0.521-1.886 0l-7.057-7.057-7.057 7.057c-0.521 0.521-1.365 0.521-1.886 0s-0.521-1.365 0-1.886l8-8z"></path>
</symbol>
<symbol id="icon-down" viewBox="0 0 32 32">
<path d="M7.057 11.057c0.521-0.521 1.365-0.521 1.886 0l7.057 7.057 7.057-7.057c0.521-0.521 1.365-0.521 1.886 0s0.521 1.365 0 1.886l-8 8c-0.521 0.521-1.365 0.521-1.886 0l-8-8c-0.521-0.521-0.521-1.365 0-1.886z"></path>
</symbol>
<symbol id="icon-right" viewBox="0 0 32 32">
<path d="M11.057 7.057c0.521-0.521 1.365-0.521 1.886 0l8 8c0.521 0.521 0.521 1.365 0 1.886l-8 8c-0.521 0.521-1.365 0.521-1.886 0s-0.521-1.365 0-1.886l7.057-7.057-7.057-7.057c-0.521-0.521-0.521-1.365 0-1.886z"></path>
</symbol>
<symbol id="icon-download" viewBox="0 0 32 32">
<path d="M16 2.666c0.736 0 1.333 0.597 1.333 1.333v12.781l4.39-4.391c0.521-0.521 1.365-0.521 1.886 0s0.521 1.365 0 1.886l-6.667 6.667c-0.521 0.521-1.365 0.521-1.886 0l-6.667-6.667c-0.521-0.521-0.521-1.365 0-1.886s1.365-0.521 1.886 0l4.39 4.391v-12.781c0-0.736 0.597-1.333 1.333-1.333zM4 18.666c0.736 0 1.333 0.597 1.333 1.333v1.6c0 1.142 0.001 1.919 0.050 2.519 0.048 0.584 0.134 0.884 0.241 1.092 0.256 0.502 0.664 0.91 1.165 1.165 0.209 0.106 0.507 0.193 1.092 0.241 0.6 0.049 1.377 0.050 2.519 0.050h11.2c1.142 0 1.919-0.001 2.519-0.050 0.584-0.048 0.884-0.134 1.092-0.241 0.502-0.256 0.91-0.664 1.165-1.165 0.106-0.208 0.193-0.508 0.241-1.092 0.049-0.6 0.050-1.376 0.050-2.519v-1.6c0-0.736 0.597-1.333 1.333-1.333s1.333 0.597 1.333 1.333v1.655c0 1.073 0 1.959-0.059 2.681-0.061 0.749-0.193 1.438-0.522 2.085-0.511 1.004-1.327 1.82-2.331 2.331-0.647 0.33-1.336 0.461-2.085 0.522-0.722 0.059-1.607 0.059-2.681 0.059h-11.31c-1.073 0-1.959 0-2.681-0.059-0.749-0.061-1.438-0.193-2.085-0.522-1.004-0.511-1.819-1.327-2.331-2.331-0.33-0.647-0.461-1.336-0.522-2.085-0.059-0.722-0.059-1.607-0.059-2.681v-1.655c0-0.736 0.597-1.333 1.333-1.333z"></path>
</symbol>
</defs>
</svg>
