<svg aria-hidden="true" style="position: absolute; width: 0; height: 0; overflow: hidden;" version="1.1" xmlns="http://www.w3.org/2000/svg" xmlns:xlink="http://www.w3.org/1999/xlink">
<defs>
<symbol id="icon-instagram" viewBox="0 0 32 32">
<path fill="#000" style="fill: var(--color1, #000)" d="M10 2h12c4.418 0 8 3.582 8 8v12c0 4.418-3.582 8-8 8h-12c-4.418 0-8-3.582-8-8v-12c0-4.418 3.582-8 8-8z"></path>
<path fill="#000" style="fill: var(--color1, #000)" d="M10 2h12c4.418 0 8 3.582 8 8v12c0 4.418-3.582 8-8 8h-12c-4.418 0-8-3.582-8-8v-12c0-4.418 3.582-8 8-8z"></path>
<path fill="#000" style="fill: var(--color1, #000)" d="M10 2h12c4.418 0 8 3.582 8 8v12c0 4.418-3.582 8-8 8h-12c-4.418 0-8-3.582-8-8v-12c0-4.418 3.582-8 8-8z"></path>
<path fill="#fff" style="fill: var(--color2, #fff)" d="M23 10.5c0 0.828-0.672 1.5-1.5 1.5s-1.5-0.672-1.5-1.5c0-0.828 0.672-1.5 1.5-1.5s1.5 0.672 1.5 1.5z"></path>
<path fill="#fff" style="fill: var(--color2, #fff)" d="M16 21c-2.761 0-5-2.239-5-5s2.239-5 5-5c2.761 0 5 2.239 5 5s-2.239 5-5 5zM16 19c1.657 0 3-1.343 3-3s-1.343-3-3-3c-1.657 0-3 1.343-3 3s1.343 3 3 3z"></path>
<path fill="#fff" style="fill: var(--color2, #fff)" d="M6 15.6v0.8c0 3.36 0 5.041 0.654 6.324 0.575 1.129 1.493 2.047 2.622 2.622 1.283 0.654 2.964 0.654 6.324 0.654h0.8c3.36 0 5.041 0 6.324-0.654 1.129-0.575 2.047-1.493 2.622-2.622 0.654-1.283 0.654-2.964 0.654-6.324v-0.8c0-3.36 0-5.040-0.654-6.324-0.575-1.129-1.493-2.047-2.622-2.622-1.283-0.654-2.964-0.654-6.324-0.654h-0.8c-3.36 0-5.040 0-6.324 0.654-1.129 0.575-2.047 1.493-2.622 2.622-0.654 1.283-0.654 2.964-0.654 6.324zM15.6 8h0.8c1.713 0 2.878 0.002 3.778 0.075 0.877 0.072 1.325 0.201 1.638 0.361 0.753 0.383 1.365 0.995 1.748 1.748 0.159 0.313 0.289 0.761 0.361 1.638 0.073 0.9 0.075 2.065 0.075 3.778v0.8c0 1.713-0.002 2.878-0.075 3.778-0.072 0.877-0.201 1.325-0.361 1.638-0.383 0.753-0.995 1.365-1.748 1.748-0.313 0.159-0.761 0.289-1.638 0.361-0.9 0.073-2.065 0.075-3.778 0.075h-0.8c-1.713 0-2.878-0.002-3.778-0.075-0.877-0.072-1.325-0.201-1.638-0.361-0.753-0.383-1.365-0.995-1.748-1.748-0.159-0.313-0.289-0.761-0.361-1.638-0.074-0.9-0.075-2.065-0.075-3.778v-0.8c0-1.713 0.002-2.878 0.075-3.778 0.072-0.877 0.201-1.325 0.361-1.638 0.383-0.753 0.995-1.365 1.748-1.748 0.313-0.159 0.761-0.289 1.638-0.361 0.9-0.074 2.065-0.075 3.778-0.075z"></path>
</symbol>
<symbol id="icon-twitter" viewBox="0 0 32 32">
<path fill="#none"  d="M11.789 28c-3.235 0-6.251-0.941-8.789-2.564 2.155 0.139 5.958-0.195 8.324-2.451-3.559-0.163-5.163-2.893-5.373-4.059 0.302 0.117 1.744 0.257 2.558-0.070-4.093-1.026-4.721-4.619-4.582-5.715 0.768 0.537 2.070 0.723 2.582 0.677-3.814-2.729-2.442-6.835-1.768-7.721 2.737 3.792 6.84 5.922 11.915 6.041-0.096-0.42-0.146-0.857-0.146-1.305 0-3.221 2.603-5.832 5.815-5.832 1.678 0 3.19 0.713 4.251 1.853 1.121-0.263 2.809-0.878 3.633-1.41-0.416 1.493-1.71 2.738-2.493 3.2-0.006-0.016 0.007 0.016 0 0 0.688-0.104 2.549-0.462 3.284-0.961-0.364 0.839-1.736 2.233-2.862 3.014 0.21 9.242-6.861 17.304-16.349 17.304z"></path>
</symbol>
<symbol id="icon-facebook" viewBox="0 0 32 32">
<path fill="#000" style="fill: var(--color1, #000)" d="M30 16c0 7.732-6.268 14-14 14s-14-6.268-14-14c0-7.732 6.268-14 14-14s14 6.268 14 14z"></path>
<path fill="#fff" style="fill: var(--color2, #fff)" d="M21.214 20.282l0.622-3.951h-3.89v-2.563c0-1.081 0.542-2.136 2.285-2.136h1.77v-3.364c0 0-1.605-0.267-3.14-0.267-3.205 0-5.299 1.893-5.299 5.318v3.012h-3.562v3.951h3.562v9.553c0.715 0.109 1.447 0.165 2.192 0.165s1.477-0.056 2.192-0.165v-9.553h3.269z"></path>
</symbol>
<symbol id="icon-left" viewBox="0 0 32 32">
<path d="M20.943 7.057c0.521 0.521 0.521 1.365 0 1.886l-7.057 7.057 7.057 7.057c0.521 0.521 0.521 1.365 0 1.886s-1.365 0.521-1.886 0l-8-8c-0.521-0.521-0.521-1.365 0-1.886l8-8c0.521-0.521 1.365-0.521 1.886 0z"></path>
</symbol>
<symbol id="icon-close" viewBox="0 0 32 32">
<path d="M7.057 7.057c0.521-0.521 1.365-0.521 1.886 0l7.057 7.057 7.057-7.057c0.521-0.521 1.365-0.521 1.886 0s0.521 1.365 0 1.886l-7.057 7.057 7.057 7.057c0.521 0.521 0.521 1.365 0 1.886s-1.365 0.521-1.886 0l-7.057-7.057-7.057 7.057c-0.521 0.521-1.365 0.521-1.886 0s-0.521-1.365 0-1.886l7.057-7.057-7.057-7.057c-0.521-0.521-0.521-1.365 0-1.886z"></path>
</symbol>
<symbol id="icon-up" viewBox="0 0 32 32">
<path d="M15.057 11.057c0.521-0.521 1.365-0.521 1.886 0l8 8c0.521 0.521 0.521 1.365 0 1.886s-1.365 0.521-1.886 0l-7.057-7.057-7.057 7.057c-0.521 0.521-1.365 0.521-1.886 0s-0.521-1.365 0-1.886l8-8z"></path>
</symbol>
<symbol id="icon-down" viewBox="0 0 32 32">
<path d="M7.057 11.057c0.521-0.521 1.365-0.521 1.886 0l7.057 7.057 7.057-7.057c0.521-0.521 1.365-0.521 1.886 0s0.521 1.365 0 1.886l-8 8c-0.521 0.521-1.365 0.521-1.886 0l-8-8c-0.521-0.521-0.521-1.365 0-1.886z"></path>
</symbol>
<symbol id="icon-right" viewBox="0 0 32 32">
<path d="M11.057 7.057c0.521-0.521 1.365-0.521 1.886 0l8 8c0.521 0.521 0.521 1.365 0 1.886l-8 8c-0.521 0.521-1.365 0.521-1.886 0s-0.521-1.365 0-1.886l7.057-7.057-7.057-7.057c-0.521-0.521-0.521-1.365 0-1.886z"></path>
</symbol>
<symbol id="icon-download" viewBox="0 0 32 32">
<path d="M16 2.666c0.736 0 1.333 0.597 1.333 1.333v12.781l4.39-4.391c0.521-0.521 1.365-0.521 1.886 0s0.521 1.365 0 1.886l-6.667 6.667c-0.521 0.521-1.365 0.521-1.886 0l-6.667-6.667c-0.521-0.521-0.521-1.365 0-1.886s1.365-0.521 1.886 0l4.39 4.391v-12.781c0-0.736 0.597-1.333 1.333-1.333zM4 18.666c0.736 0 1.333 0.597 1.333 1.333v1.6c0 1.142 0.001 1.919 0.050 2.519 0.048 0.584 0.134 0.884 0.241 1.092 0.256 0.502 0.664 0.91 1.165 1.165 0.209 0.106 0.507 0.193 1.092 0.241 0.6 0.049 1.377 0.050 2.519 0.050h11.2c1.142 0 1.919-0.001 2.519-0.050 0.584-0.048 0.884-0.134 1.092-0.241 0.502-0.256 0.91-0.664 1.165-1.165 0.106-0.208 0.193-0.508 0.241-1.092 0.049-0.6 0.050-1.376 0.050-2.519v-1.6c0-0.736 0.597-1.333 1.333-1.333s1.333 0.597 1.333 1.333v1.655c0 1.073 0 1.959-0.059 2.681-0.061 0.749-0.193 1.438-0.522 2.085-0.511 1.004-1.327 1.82-2.331 2.331-0.647 0.33-1.336 0.461-2.085 0.522-0.722 0.059-1.607 0.059-2.681 0.059h-11.31c-1.073 0-1.959 0-2.681-0.059-0.749-0.061-1.438-0.193-2.085-0.522-1.004-0.511-1.819-1.327-2.331-2.331-0.33-0.647-0.461-1.336-0.522-2.085-0.059-0.722-0.059-1.607-0.059-2.681v-1.655c0-0.736 0.597-1.333 1.333-1.333z"></path>
</symbol>
<symbol id="icon-search" viewBox="0 0 32 32">
<path fill="#9ca3af" style="fill: var(--color1, #9ca3af)" d="M15.333 5.333c5.523 0 10 4.477 10 10 0 2.684-1.057 5.121-2.779 6.917-0.057 0.041-0.112 0.088-0.164 0.14s-0.098 0.107-0.14 0.164c-1.796 1.721-4.233 2.779-6.918 2.779-5.523 0-10-4.477-10-10s4.477-10 10-10zM25.183 23.297c1.761-2.176 2.816-4.947 2.816-7.964 0-6.996-5.671-12.667-12.667-12.667s-12.667 5.671-12.667 12.667c0 6.996 5.671 12.667 12.667 12.667 3.017 0 5.789-1.055 7.965-2.817l3.759 3.76c0.521 0.521 1.365 0.521 1.886 0s0.521-1.365 0-1.886l-3.759-3.76z"></path>
</symbol>
<symbol id="icon-clear" viewBox="0 0 32 32">
<path d="M25.333 16c0 5.155-4.179 9.333-9.333 9.333s-9.333-4.179-9.333-9.333c0-5.155 4.179-9.333 9.333-9.333s9.333 4.179 9.333 9.333zM17.924 12.889l-1.924 1.924-1.924-1.924-1.187 1.187 1.924 1.924-1.924 1.924 1.187 1.187 1.924-1.925 1.924 1.925 1.187-1.187-1.925-1.924 1.925-1.924-1.187-1.187z"></path>
</symbol>

<svg xmlns="http://www.w3.org/2000/svg" width="24" height="24" viewBox="0 0 24 24" fill="none" id="icon-up1">
  <path fill-rule="evenodd" clip-rule="evenodd" d="M11.2929 8.29289C11.6834 7.90237 12.3166 7.90237 12.7071 8.29289L18.7071 14.2929C19.0976 14.6834 19.0976 15.3166 18.7071 15.7071C18.3166 16.0976 17.6834 16.0976 17.2929 15.7071L12 10.4142L6.70711 15.7071C6.31658 16.0976 5.68342 16.0976 5.29289 15.7071C4.90237 15.3166 4.90237 14.6834 5.29289 14.2929L11.2929 8.29289Z" fill="#151622"/>
</svg>
<symbol  id="icon-language" viewBox="0 0 20 20" fill="none">
<g clip-path="url(#clip0_57_1098)">
<path d="M10 20C15.5228 20 20 15.5228 20 10C20 4.47715 15.5228 0 10 0C4.47715 0 0 4.47715 0 10C0 15.5228 4.47715 20 10 20Z" fill="#FFDA44"/>
<path d="M0 10C0 4.47719 4.47719 0 10 0C15.5228 0 20 4.47719 20 10" fill="#338AF3"/>
</g>
<symbol id="icon-downfooter" viewBox="0 0 16 16" fill="none">
  <path fill-rule="evenodd" clip-rule="evenodd" d="M3.52859 5.52851C3.78894 5.26816 4.21105 5.26816 4.4714 5.52851L8 9.05711L11.5286 5.52851C11.7889 5.26816 12.2111 5.26816 12.4714 5.52851C12.7317 5.78886 12.7317 6.21097 12.4714 6.47132L8.4714 10.4713C8.21105 10.7317 7.78894 10.7317 7.52859 10.4713L3.52859 6.47132C3.26824 6.21097 3.26824 5.78886 3.52859 5.52851Z" fill="white"/>
</symbol>
<symbol id="icon-mail" viewBox="0 0 20 20" fill="none">
<path fill-rule="evenodd" clip-rule="evenodd" d="M5.63225 2.5H14.3677C15.0386 2.49999 15.5922 2.49998 16.0432 2.53683C16.5116 2.5751 16.9422 2.65724 17.3466 2.86331C17.9738 3.18289 18.4838 3.69283 18.8034 4.32003C19.0022 4.71032 19.0857 5.12495 19.1257 5.57442C19.1702 5.71059 19.178 5.85421 19.1516 5.99133C19.1667 6.36643 19.1667 6.80029 19.1667 7.2989V12.7011C19.1667 13.3719 19.1667 13.9255 19.1298 14.3765C19.0916 14.8449 19.0094 15.2755 18.8034 15.68C18.4838 16.3072 17.9738 16.8171 17.3466 17.1367C16.9422 17.3428 16.5116 17.4249 16.0432 17.4632C15.5922 17.5 15.0386 17.5 14.3678 17.5H5.63223C4.96143 17.5 4.4078 17.5 3.95681 17.4632C3.4884 17.4249 3.05781 17.3428 2.65336 17.1367C2.02616 16.8171 1.51622 16.3072 1.19664 15.68C0.990567 15.2755 0.90843 14.8449 0.870159 14.3765C0.833311 13.9255 0.83332 13.3719 0.833331 12.7011V7.29892C0.833323 6.80031 0.833316 6.36643 0.848445 5.99133C0.821982 5.85421 0.829792 5.71058 0.874344 5.57441C0.914334 5.12494 0.997783 4.71032 1.19664 4.32003C1.51622 3.69283 2.02616 3.18289 2.65336 2.86331C3.05781 2.65724 3.4884 2.5751 3.95681 2.53683C4.40781 2.49998 4.96144 2.49999 5.63225 2.5ZM2.5 7.43388V12.6667C2.5 12.986 2.50013 13.2596 2.50301 13.498L6.28415 10.0828L2.5 7.43388ZM8.08206 9.30689L2.56897 5.44774C2.59874 5.2751 2.63748 5.16339 2.68165 5.07668C2.84144 4.76308 3.09641 4.50811 3.41001 4.34832C3.54035 4.28192 3.72718 4.22781 4.09253 4.19796C4.4676 4.16732 4.95285 4.16667 5.66666 4.16667H14.3333C15.0471 4.16667 15.5324 4.16732 15.9075 4.19796C16.2728 4.22781 16.4596 4.28192 16.59 4.34832C16.9036 4.50811 17.1586 4.76308 17.3183 5.07668C17.3625 5.16339 17.4013 5.2751 17.431 5.44774L11.918 9.30688C11.9083 9.31333 11.8988 9.31999 11.8894 9.32688L11.0513 9.91351C10.4439 10.3387 10.3152 10.4125 10.2016 10.4408C10.0692 10.4738 9.93079 10.4738 9.79844 10.4408C9.6848 10.4125 9.5561 10.3387 8.94865 9.91351L8.11059 9.32687C8.10119 9.31999 8.09168 9.31333 8.08206 9.30689ZM7.68499 11.0634L2.9676 15.3243C3.09513 15.4564 3.2444 15.5673 3.41001 15.6517C3.54035 15.7181 3.72718 15.7722 4.09253 15.802C4.4676 15.8327 4.95285 15.8333 5.66666 15.8333H14.3333C15.0471 15.8333 15.5324 15.8327 15.9075 15.802C16.2728 15.7722 16.4596 15.7181 16.59 15.6517C16.7556 15.5673 16.9049 15.4564 17.0324 15.3243L12.315 11.0634L12.0071 11.2789C11.9748 11.3015 11.9428 11.324 11.911 11.3463C11.4571 11.665 11.0586 11.9449 10.6047 12.058C10.2076 12.157 9.79237 12.157 9.39533 12.058C8.94142 11.9449 8.54288 11.665 8.089 11.3463C8.05724 11.324 8.02522 11.3015 7.99288 11.2789L7.68499 11.0634ZM13.7158 10.0828L17.497 13.498C17.4999 13.2596 17.5 12.986 17.5 12.6667V7.43388L13.7158 10.0828Z" fill="white"/>
</symbol>
</symbol>

<symbol id="icon-user" viewBox="0 0 32 32">
<path stroke-linejoin="round" stroke-linecap="round" stroke-miterlimit="4" stroke-width="2.4" d="M7.089 25.918c0.811-1.911 2.705-3.251 4.912-3.251h8c2.207 0 4.1 1.34 4.912 3.251M21.334 12.666c0 2.946-2.388 5.333-5.333 5.333s-5.333-2.388-5.333-5.333 2.388-5.333 5.333-5.333c2.946 0 5.333 2.388 5.333 5.333zM29.334 16c0 7.364-5.97 13.333-13.333 13.333s-13.333-5.97-13.333-13.333c0-7.364 5.97-13.333 13.333-13.333s13.333 5.97 13.333 13.333z"></path>
</symbol>
<symbol id="icon-docs" viewBox="0 0 26 32">
<path stroke-linejoin="round" stroke-linecap="round" stroke-miterlimit="4" stroke-width="2.9091" d="M16 1.847v6.008c0 0.815 0 1.222 0.159 1.533 0.14 0.274 0.362 0.496 0.636 0.636 0.311 0.159 0.718 0.159 1.533 0.159h6.008M24.727 13.074v10.49c0 2.444 0 3.666-0.476 4.599-0.418 0.821-1.086 1.489-1.907 1.907-0.934 0.476-2.155 0.476-4.599 0.476h-9.309c-2.444 0-3.666 0-4.599-0.476-0.821-0.418-1.489-1.086-1.907-1.907-0.476-0.934-0.476-2.155-0.476-4.599v-15.127c0-2.444 0-3.666 0.476-4.599 0.418-0.821 1.086-1.489 1.907-1.907 0.933-0.476 2.155-0.476 4.599-0.476h4.672c1.067 0 1.601 0 2.103 0.121 0.445 0.107 0.871 0.283 1.261 0.522 0.44 0.27 0.818 0.647 1.572 1.402l4.637 4.637c0.755 0.755 1.132 1.132 1.402 1.572 0.239 0.39 0.416 0.816 0.522 1.261 0.121 0.502 0.121 1.036 0.121 2.103z"></path>
</symbol>
<svg width="20" height="20" viewBox="0 0 20 20" fill="none" id="icon-docs1" >
<path d="M11.6663 1.89111V5.33323C11.6663 5.79994 11.6663 6.0333 11.7572 6.21156C11.8371 6.36836 11.9645 6.49584 12.1213 6.57574C12.2996 6.66656 12.533 6.66656 12.9997 6.66656H16.4418M13.333 10.8332H6.66634M13.333 14.1665H6.66634M8.33301 7.49984H6.66634M11.6663 1.6665H7.33301C5.93288 1.6665 5.23281 1.6665 4.69803 1.93899C4.22763 2.17867 3.84517 2.56112 3.60549 3.03153C3.33301 3.56631 3.33301 4.26637 3.33301 5.6665V14.3332C3.33301 15.7333 3.33301 16.4334 3.60549 16.9681C3.84517 17.4386 4.22763 17.821 4.69803 18.0607C5.23281 18.3332 5.93288 18.3332 7.33301 18.3332H12.6663C14.0665 18.3332 14.7665 18.3332 15.3013 18.0607C15.7717 17.821 16.1542 17.4386 16.3939 16.9681C16.6663 16.4334 16.6663 15.7333 16.6663 14.3332V6.6665L11.6663 1.6665Z" stroke="#17181B" stroke-width="1.5" stroke-linecap="round" stroke-linejoin="round"/>
</svg>
<symbol id="icon-home" viewBox="0 0 31 32">
<path stroke-linejoin="round" stroke-linecap="round" stroke-miterlimit="4" stroke-width="1.7778" d="M12.444 20.741v-7.309c0-0.553 0-0.83 0.108-1.041 0.095-0.186 0.246-0.337 0.432-0.432 0.211-0.108 0.488-0.108 1.041-0.108h2.765c0.553 0 0.83 0 1.041 0.108 0.186 0.095 0.337 0.246 0.432 0.432 0.108 0.211 0.108 0.488 0.108 1.041v7.309M14.437 2.73l-6.699 5.21c-0.448 0.348-0.672 0.522-0.833 0.74-0.143 0.193-0.249 0.411-0.314 0.642-0.073 0.261-0.073 0.545-0.073 1.112v7.146c0 1.106 0 1.66 0.215 2.082 0.189 0.372 0.492 0.674 0.863 0.863 0.423 0.215 0.976 0.215 2.082 0.215h11.457c1.106 0 1.66 0 2.082-0.215 0.372-0.189 0.674-0.492 0.863-0.863 0.215-0.423 0.215-0.976 0.215-2.082v-7.146c0-0.567 0-0.851-0.073-1.112-0.065-0.231-0.171-0.449-0.314-0.642-0.161-0.218-0.385-0.392-0.833-0.74l-6.699-5.21c-0.347-0.27-0.521-0.405-0.712-0.457-0.169-0.046-0.347-0.046-0.516 0-0.192 0.052-0.365 0.187-0.712 0.457z"></path>
</symbol>
<svg width="20" height="20" viewBox="0 0 20 20"   id="icon-home1">
<path d="M7.5 17.5V11.3333C7.5 10.8666 7.5 10.6333 7.59083 10.455C7.67072 10.2982 7.79821 10.1707 7.95501 10.0908C8.13327 9.99999 8.36662 9.99999 8.83333 9.99999H11.1667C11.6334 9.99999 11.8667 9.99999 12.045 10.0908C12.2018 10.1707 12.3293 10.2982 12.4092 10.455C12.5 10.6333 12.5 10.8666 12.5 11.3333V17.5M9.18141 2.30333L3.52949 6.69927C3.15168 6.99312 2.96278 7.14005 2.82669 7.32405C2.70614 7.48704 2.61633 7.67065 2.56169 7.86588C2.5 8.08627 2.5 8.32558 2.5 8.80421V14.8333C2.5 15.7667 2.5 16.2334 2.68166 16.59C2.84144 16.9036 3.09641 17.1585 3.41002 17.3183C3.76654 17.5 4.23325 17.5 5.16667 17.5H14.8333C15.7668 17.5 16.2335 17.5 16.59 17.3183C16.9036 17.1585 17.1586 16.9036 17.3183 16.59C17.5 16.2334 17.5 15.7667 17.5 14.8333V8.80421C17.5 8.32558 17.5 8.08627 17.4383 7.86588C17.3837 7.67065 17.2939 7.48704 17.1733 7.32405C17.0372 7.14005 16.8483 6.99312 16.4705 6.69927L10.8186 2.30333C10.5258 2.07562 10.3794 1.96177 10.2178 1.918C10.0752 1.87938 9.92484 1.87938 9.78221 1.918C9.62057 1.96177 9.47418 2.07562 9.18141 2.30333Z" stroke="#17181B" stroke-width="1.5" stroke-linecap="round" stroke-linejoin="round"/>
</svg>
<symbol id="icon-profile" viewBox="0 0 32 32">
<path d="M16 5.333c-2.577 0-4.667 2.089-4.667 4.667s2.089 4.667 4.667 4.667c2.577 0 4.667-2.089 4.667-4.667s-2.089-4.667-4.667-4.667zM8.667 10c0-4.050 3.283-7.333 7.333-7.333s7.333 3.283 7.333 7.333c0 4.050-3.283 7.333-7.333 7.333s-7.333-3.283-7.333-7.333zM16 22.667c-4.255 0-8.142 1.852-11.030 4.915-0.505 0.536-1.349 0.561-1.885 0.055s-0.561-1.349-0.055-1.885c3.341-3.544 7.91-5.752 12.97-5.752s9.629 2.208 12.97 5.752c0.505 0.536 0.48 1.38-0.055 1.885s-1.38 0.48-1.885-0.055c-2.888-3.063-6.775-4.915-11.030-4.915z"></path>
</symbol>
<symbol id="icon-search2" viewBox="0 0 32 32">
<path d="M15.333 5.333c5.523 0 10 4.477 10 10 0 2.684-1.057 5.121-2.779 6.917-0.057 0.041-0.112 0.088-0.164 0.14s-0.098 0.107-0.14 0.164c-1.796 1.721-4.233 2.779-6.917 2.779-5.523 0-10-4.477-10-10s4.477-10 10-10zM25.183 23.298c1.761-2.176 2.817-4.947 2.817-7.964 0-6.996-5.671-12.667-12.667-12.667s-12.667 5.671-12.667 12.667c0 6.996 5.671 12.667 12.667 12.667 3.018 0 5.789-1.055 7.965-2.817l3.759 3.759c0.521 0.521 1.365 0.521 1.886 0s0.521-1.365 0-1.886l-3.759-3.759z"></path>
</symbol>
<symbol id="icon-rules" viewBox="0 0 32 32">
<path stroke-linejoin="round" stroke-linecap="round" stroke-miterlimit="4" stroke-width="2" d="M29.333 22.32v-16.093c0-1.6-1.307-2.787-2.893-2.653h-0.080c-2.8 0.24-7.053 1.667-9.427 3.16l-0.227 0.147c-0.387 0.24-1.027 0.24-1.413 0l-0.333-0.2c-2.373-1.48-6.613-2.893-9.413-3.12-1.587-0.133-2.88 1.067-2.88 2.653v16.107c0 1.28 1.040 2.48 2.32 2.64l0.387 0.053c2.893 0.387 7.36 1.853 9.92 3.253l0.053 0.027c0.36 0.2 0.933 0.2 1.28 0 2.56-1.413 7.040-2.893 9.947-3.28l0.44-0.053c1.28-0.16 2.32-1.36 2.32-2.64z"></path>
<path stroke-linejoin="round" stroke-linecap="round" stroke-miterlimit="4" stroke-width="2" d="M16 7.32v20"></path>
<path stroke-linejoin="round" stroke-linecap="round" stroke-miterlimit="4" stroke-width="2" d="M10.333 11.32h-3"></path>
<path stroke-linejoin="round" stroke-linecap="round" stroke-miterlimit="4" stroke-width="2" d="M11.333 15.32h-4"></path>
</symbol>
<svg width="20" height="20" viewBox="0 0 20 20" fill="none" id="icon-rules1">
  <path d="M10.0003 17.5L9.91695 17.3749C9.33808 16.5066 9.04864 16.0725 8.66624 15.7582C8.32771 15.4799 7.93763 15.2712 7.51833 15.1438C7.0447 15 6.52292 15 5.47934 15H4.33366C3.40024 15 2.93353 15 2.57701 14.8183C2.2634 14.6586 2.00844 14.4036 1.84865 14.09C1.66699 13.7335 1.66699 13.2668 1.66699 12.3333V5.16667C1.66699 4.23325 1.66699 3.76654 1.84865 3.41002C2.00844 3.09641 2.2634 2.84144 2.57701 2.68166C2.93353 2.5 3.40024 2.5 4.33366 2.5H4.66699C6.53383 2.5 7.46725 2.5 8.18029 2.86331C8.8075 3.18289 9.31744 3.69282 9.63701 4.32003C10.0003 5.03307 10.0003 5.96649 10.0003 7.83333M10.0003 17.5V7.83333M10.0003 17.5L10.0837 17.3749C10.6626 16.5066 10.952 16.0725 11.3344 15.7582C11.6729 15.4799 12.063 15.2712 12.4823 15.1438C12.956 15 13.4777 15 14.5213 15H15.667C16.6004 15 17.0671 15 17.4236 14.8183C17.7372 14.6586 17.9922 14.4036 18.152 14.09C18.3337 13.7335 18.3337 13.2668 18.3337 12.3333V5.16667C18.3337 4.23325 18.3337 3.76654 18.152 3.41002C17.9922 3.09641 17.7372 2.84144 17.4236 2.68166C17.0671 2.5 16.6004 2.5 15.667 2.5H15.3337C13.4668 2.5 12.5334 2.5 11.8204 2.86331C11.1932 3.18289 10.6832 3.69282 10.3636 4.32003C10.0003 5.03307 10.0003 5.96649 10.0003 7.83333" stroke="#17181B" stroke-width="1.5" stroke-linecap="round" stroke-linejoin="round"/>
</svg>
<svg width="20" height="20" viewBox="0 0 20 20" fill="none" id="icon-profile1">
  <g clip-path="url(#clip0_554_5627)">
    <path d="M4.43057 16.1985C4.93751 15.0042 6.12109 14.1665 7.50033 14.1665H12.5003C13.8796 14.1665 15.0631 15.0042 15.5701 16.1985M13.3337 7.9165C13.3337 9.75745 11.8413 11.2498 10.0003 11.2498C8.15938 11.2498 6.66699 9.75745 6.66699 7.9165C6.66699 6.07555 8.15938 4.58317 10.0003 4.58317C11.8413 4.58317 13.3337 6.07555 13.3337 7.9165ZM18.3337 9.99984C18.3337 14.6022 14.6027 18.3332 10.0003 18.3332C5.39795 18.3332 1.66699 14.6022 1.66699 9.99984C1.66699 5.39746 5.39795 1.6665 10.0003 1.6665C14.6027 1.6665 18.3337 5.39746 18.3337 9.99984Z" stroke="#17181B" stroke-width="1.5" stroke-linecap="round" stroke-linejoin="round"/>
  </g>
  <defs>
    <clipPath id="clip0_554_5627">
      <rect width="20" height="20" fill="white"/>
    </clipPath>
  </defs>
</svg>
</defs>
</svg>


